<?xml version="1.0" encoding="UTF-8"?>
<svg version="1.1" xmlns="http://www.w3.org/2000/svg" width="500" height="500">
<path d="M0 0 C1.17000288 0.69975434 2.34204319 1.39610849 3.515625 2.08984375 C11.5153473 6.82044384 19.32715492 11.74959697 27 17 C27.97839844 17.65484375 28.95679688 18.3096875 29.96484375 18.984375 C30.88394531 19.60828125 31.80304688 20.2321875 32.75 20.875 C33.56984375 21.42929688 34.3896875 21.98359375 35.234375 22.5546875 C35.81703125 23.03164062 36.3996875 23.50859375 37 24 C37 24.66 37 25.32 37 26 C37.598125 26.268125 38.19625 26.53625 38.8125 26.8125 C41 28 41 28 42.25 29.48828125 C44.71695481 31.61933373 47.00076519 31.79966921 50.1875 32.375 C55.78660242 33.55870286 60.70385309 35.06727337 65 39 C65 39.66 65 40.32 65 41 C65.66 41 66.32 41 67 41 C67 41.66 67 42.32 67 43 C68.32 43 69.64 43 71 43 C71.33 42.34 71.66 41.68 72 41 C72.66 41 73.32 41 74 41 C74 40.34 74 39.68 74 39 C79.86717353 34.34001041 86.04273205 32.16372424 93.3359375 30.8359375 C96.47994577 29.84940118 97.7913418 28.38379409 100 26 C100.66 26 101.32 26 102 26 C102 25.34 102 24.68 102 24 C104.03873368 22.45416807 106.07281483 21.03787412 108.2109375 19.640625 C108.85310211 19.21376404 109.49526672 18.78690308 110.15689087 18.34710693 C111.52514298 17.43943386 112.89561082 16.53509362 114.26806641 15.63378906 C116.33572347 14.27579598 118.39693617 12.90849273 120.45703125 11.5390625 C131.96968265 3.90861573 143.55915957 -2.98986662 156 -9 C157.10988281 -9.54011719 158.21976562 -10.08023438 159.36328125 -10.63671875 C172.6961084 -16.97579944 187.48094816 -22.92433875 202.4375 -19.125 C216.96767474 -13.5738593 227.73120302 4.54221565 234 18 C234.36996094 19.06992188 234.73992187 20.13984375 235.12109375 21.2421875 C236.92729277 27.23614155 236.92729277 27.23614155 241.32421875 31.24609375 C243.92464188 31.9674333 243.92464188 31.9674333 246.55859375 32.43359375 C251.45134387 33.56871178 254.27014742 36.90522112 257 41 C261.60132165 61.74990911 256.75722521 86.08142135 253.125 106.6875 C252.94067413 107.74429962 252.94067413 107.74429962 252.75262451 108.82244873 C251.1945052 117.65970903 249.23476849 126.27298007 246.76513672 134.90161133 C245.8401702 138.11531321 245.8401702 138.11531321 246 142 C247.79244141 142.43699219 247.79244141 142.43699219 249.62109375 142.8828125 C270.44591914 148.1688787 270.44591914 148.1688787 277 158 C281.34482194 166.68964389 276.83607042 178.6965701 274.0234375 187.24609375 C270.08878059 198.65260422 265.56191817 209.83321771 261 221 C260.30052246 222.72452393 260.30052246 222.72452393 259.58691406 224.48388672 C242.41103738 266.67627711 242.41103738 266.67627711 233.3125 272.8125 C227.12160732 275.03187662 222.12334213 274.81412044 216.125 272.0625 C211.21082355 269.36959216 207.01493262 265.97983909 202.76171875 262.3515625 C199.20208575 259.32058787 195.50480919 256.48037411 191.80078125 253.62890625 C191.20652344 253.09136719 190.61226563 252.55382812 190 252 C190 251.34 190 250.68 190 250 C189.34 250 188.68 250 188 250 C188 249.34 188 248.68 188 248 C187.12952026 247.61171021 187.12952026 247.61171021 186.24145508 247.21557617 C183.82369519 245.90438714 182.12712511 244.44448168 180.13671875 242.55078125 C179.05293945 241.52500977 179.05293945 241.52500977 177.94726562 240.47851562 C176.82868164 239.40633789 176.82868164 239.40633789 175.6875 238.3125 C174.58631836 237.26932617 174.58631836 237.26932617 173.46289062 236.20507812 C169.37410828 232.31946509 165.35557612 228.37867433 161.42114258 224.33666992 C160.01936768 222.89008606 160.01936768 222.89008606 158 222 C158 221.34 158 220.68 158 220 C157.34 220 156.68 220 156 220 C156 219.34 156 218.68 156 218 C155.34 218 154.68 218 154 218 C154 217.34 154 216.68 154 216 C153.01 215.67 152.02 215.34 151 215 C151 214.34 151 213.68 151 213 C150.34 213 149.68 213 149 213 C149 212.34 149 211.68 149 211 C148.34 211 147.68 211 147 211 C145.6953125 209.671875 145.6953125 209.671875 144.125 207.75 C140.92105751 203.96961598 137.52640777 200.47385652 134 197 C123.94748703 187.04760543 123.94748703 187.04760543 121 183 C121 182.34 121 181.68 121 181 C120.34 181 119.68 181 119 181 C117.60674046 179.44759659 116.28619872 177.82970015 115 176.1875 C111.82745313 172.21421446 108.5933118 168.41067177 105.125 164.6875 C96.62320523 155.43438383 89.16327775 145.31067839 81.6796875 135.23046875 C79.94476335 132.59223177 79.94476335 132.59223177 77.25341797 131.74365234 C66.95570242 130.65542786 66.95570242 130.65542786 57.46484375 133.62109375 C55.68288757 135.98439733 54.35069599 138.36767771 53 141 C51.80104977 142.75025324 50.56994858 144.47878963 49.3125 146.1875 C48.64734375 147.10917969 47.9821875 148.03085937 47.296875 148.98046875 C43.72602253 153.67480372 39.85260608 158.09291022 35.98046875 162.5390625 C32.43694469 166.61851458 29.08326623 170.83921838 25.7421875 175.0859375 C25.16726562 175.71757812 24.59234375 176.34921875 24 177 C23.34 177 22.68 177 22 177 C22 177.66 22 178.32 22 179 C21.34 179 20.68 179 20 179 C19.77699219 179.54140625 19.55398437 180.0828125 19.32421875 180.640625 C17.57928684 183.74958923 15.24733637 186.17910045 12.8125 188.75 C11.81942457 189.81167014 10.82723826 190.87417263 9.8359375 191.9375 C9.3522168 192.45570313 8.86849609 192.97390625 8.37011719 193.5078125 C5.93993019 196.15451651 3.63642363 198.90924101 1.33984375 201.671875 C0 203 0 203 -2 203 C-2 203.66 -2 204.32 -2 205 C-2.66 205 -3.32 205 -4 205 C-4 205.66 -4 206.32 -4 207 C-4.66 207 -5.32 207 -6 207 C-6 207.66 -6 208.32 -6 209 C-6.66 209 -7.32 209 -8 209 C-8.2578125 209.58265625 -8.515625 210.1653125 -8.78125 210.765625 C-10.09834017 213.1802903 -11.55088384 214.81740177 -13.5 216.75 C-14.1084375 217.36359375 -14.716875 217.9771875 -15.34375 218.609375 C-17 220 -17 220 -19 220 C-19 220.66 -19 221.32 -19 222 C-19.66 222 -20.32 222 -21 222 C-21 222.66 -21 223.32 -21 224 C-21.66 224 -22.32 224 -23 224 C-23 224.66 -23 225.32 -23 226 C-24.3984375 227.375 -24.3984375 227.375 -26.375 229 C-29.74795148 231.86045355 -32.89673477 234.84869661 -36 238 C-39.51384471 241.55128294 -43.09291971 244.92472844 -46.890625 248.16796875 C-49.37667753 250.32715141 -51.77533092 252.5711348 -54.1875 254.8125 C-75.13482085 273.84231298 -75.13482085 273.84231298 -86.625 274.5 C-91.13308805 274.22607104 -94.65316002 273.0881849 -98 270 C-109.3466077 256.29741409 -115.57014739 237.11746816 -121.92871094 220.72070312 C-123.09260179 217.76482352 -124.29655329 214.82740055 -125.5078125 211.890625 C-142.06380894 171.61694222 -142.06380894 171.61694222 -138.4375 157.8671875 C-135.89936793 152.22960569 -130.44636156 149.36572268 -125 147 C-110.28215223 142 -110.28215223 142 -105 142 C-105.25322021 141.29399658 -105.50644043 140.58799316 -105.76733398 139.8605957 C-108.47662003 132.06179036 -110.43063147 124.27527426 -112.0625 116.1875 C-112.44764771 114.29596191 -112.44764771 114.29596191 -112.84057617 112.36621094 C-124.61443858 53.09683435 -124.61443858 53.09683435 -115.4375 37.3125 C-111.7538088 33.81771604 -106.94089717 31.39176185 -101.859375 30.71484375 C-99.76337337 30.14063994 -99.76337337 30.14063994 -98.796875 27.76953125 C-98.45140625 26.79371094 -98.1059375 25.81789062 -97.75 24.8125 C-91.83709417 9.64382973 -80.85567758 -10.42683616 -65.75390625 -18.1484375 C-44.45059882 -26.1971741 -17.65123625 -11.0988834 0 0 Z " fill="#97BCEC" transform="translate(187,140)"/>
<path d="M0 0 C2.95268648 0.00546702 5.90522764 -0.00003747 8.85791016 -0.00634766 C10.73681674 -0.00568857 12.61572324 -0.00441095 14.49462891 -0.00244141 C15.81775085 -0.00547775 15.81775085 -0.00547775 17.16760254 -0.00857544 C23.28586169 0.01535387 23.28586169 0.01535387 24.40087891 1.13037109 C26.22571626 23.59978215 22.74506629 45.87408719 17.26416016 67.60302734 C16.53775682 70.57109166 15.95410762 73.49220506 15.46337891 76.50537109 C12.37097111 94.45775618 6.21065334 111.91534274 0.40087891 129.13037109 C-4.93708309 129.61271706 -7.65890349 128.27708448 -12.09912109 125.38037109 C-13.72333984 124.33623047 -13.72333984 124.33623047 -15.38037109 123.27099609 C-16.44255859 122.56458984 -17.50474609 121.85818359 -18.59912109 121.13037109 C-19.17404297 120.77136719 -19.74896484 120.41236328 -20.34130859 120.04248047 C-21.79441625 119.12320227 -23.20163525 118.13218324 -24.59912109 117.13037109 C-24.59912109 116.47037109 -24.59912109 115.81037109 -24.59912109 115.13037109 C-25.50662109 114.84162109 -26.41412109 114.55287109 -27.34912109 114.25537109 C-29.92115017 113.36505334 -32.21258875 112.41542697 -34.59912109 111.13037109 C-34.59912109 110.47037109 -34.59912109 109.81037109 -34.59912109 109.13037109 C-35.12634766 109.04529297 -35.65357422 108.96021484 -36.19677734 108.87255859 C-39.50694594 107.84990488 -42.11047719 106.10239372 -45.03662109 104.25537109 C-46.14908203 103.55669922 -47.26154297 102.85802734 -48.40771484 102.13818359 C-49.46087891 101.47560547 -50.51404297 100.81302734 -51.59912109 100.13037109 C-52.53884766 99.59154297 -53.47857422 99.05271484 -54.44677734 98.49755859 C-56.59912109 97.13037109 -56.59912109 97.13037109 -57.59912109 95.13037109 C-58.8427611 94.39482154 -60.12068118 93.71683008 -61.41162109 93.06787109 C-67.6128329 89.73409963 -73.06218405 85.45320323 -78.59912109 81.13037109 C-79.54271484 80.42009766 -80.48630859 79.70982422 -81.45849609 78.97802734 C-82.16490234 78.36830078 -82.87130859 77.75857422 -83.59912109 77.13037109 C-83.59912109 76.47037109 -83.59912109 75.81037109 -83.59912109 75.13037109 C-84.18177734 75.01564453 -84.76443359 74.90091797 -85.36474609 74.78271484 C-87.76435244 74.08213047 -89.32773042 73.14844515 -91.34912109 71.69287109 C-91.96271484 71.26103516 -92.57630859 70.82919922 -93.20849609 70.38427734 C-93.89685547 69.76359375 -93.89685547 69.76359375 -94.59912109 69.13037109 C-94.59912109 68.47037109 -94.59912109 67.81037109 -94.59912109 67.13037109 C-95.68193359 66.75912109 -95.68193359 66.75912109 -96.78662109 66.38037109 C-99.89479648 64.99895981 -102.12635258 63.46183855 -104.59912109 61.13037109 C-104.59912109 60.14037109 -104.59912109 59.15037109 -104.59912109 58.13037109 C-103.93912109 58.13037109 -103.27912109 58.13037109 -102.59912109 58.13037109 C-102.16599609 57.20224609 -102.16599609 57.20224609 -101.72412109 56.25537109 C-100.59912109 54.13037109 -100.59912109 54.13037109 -98.59912109 52.13037109 C-93.07255197 51.63692742 -88.84061532 52.4822954 -83.60693359 54.19677734 C-79.7641198 55.38954682 -75.88010652 56.35600067 -71.97412109 57.31787109 C-70.8884082 57.58615723 -70.8884082 57.58615723 -69.78076172 57.85986328 C-68.05402997 58.285326 -66.32664473 58.70813517 -64.59912109 59.13037109 C-64.59912109 59.79037109 -64.59912109 60.45037109 -64.59912109 61.13037109 C-59.0644333 62.47211359 -54.12726626 62.51240739 -48.59912109 61.13037109 C-47.93912109 56.84037109 -47.27912109 52.55037109 -46.59912109 48.13037109 C-47.91912109 47.47037109 -49.23912109 46.81037109 -50.59912109 46.13037109 C-51.58912109 45.47037109 -52.57912109 44.81037109 -53.59912109 44.13037109 C-56.11929609 43.46318026 -58.6160752 42.86766998 -61.16162109 42.31787109 C-70.40674194 40.24031585 -79.48244786 37.71462492 -88.59912109 35.13037109 C-88.26912109 26.88037109 -87.93912109 18.63037109 -87.59912109 10.13037109 C-76.07603142 5.19190409 -64.77276359 3.5953816 -52.34912109 2.50537109 C-50.43292969 2.32361328 -50.43292969 2.32361328 -48.47802734 2.13818359 C-32.29631947 0.64498688 -16.24894215 -0.03595511 0 0 Z " fill="#C0DDFD" transform="translate(400.59912109375,189.86962890625)"/>
<path d="M0 0 C0.99177246 0.00410889 1.98354492 0.00821777 3.00537109 0.01245117 C6.60798117 0.03739108 10.21009539 0.07907257 13.8125 0.125 C14.88694366 0.1379007 14.88694366 0.1379007 15.98309326 0.15106201 C73.56497068 0.86470143 73.56497068 0.86470143 87.8125 6.125 C90.93554742 6.68435178 94.06101594 7.12479327 97.203125 7.5625 C99.8125 8.125 99.8125 8.125 101.8125 10.125 C102.03955078 12.55517578 102.03955078 12.55517578 102.0078125 15.5703125 C102.00136719 16.64667969 101.99492187 17.72304687 101.98828125 18.83203125 C101.96314453 20.52392578 101.96314453 20.52392578 101.9375 22.25 C101.92847656 23.38566406 101.91945313 24.52132812 101.91015625 25.69140625 C101.88653098 28.50281299 101.85359013 31.31380298 101.8125 34.125 C96.22156295 36.00073158 90.62528485 37.85466687 85 39.625 C84.31784424 39.84003174 83.63568848 40.05506348 82.93286133 40.27661133 C77.72673912 41.89436042 72.48837254 43.25304521 67.16796875 44.44921875 C64.57469927 45.06417123 64.57469927 45.06417123 61.8125 47.125 C60.3424729 51.5350813 59.90213123 56.09688116 61.82421875 60.37890625 C62.15035156 60.95511719 62.47648437 61.53132813 62.8125 62.125 C72.40937565 62.77563564 80.38524396 59.69573684 89.33203125 56.5234375 C90.11521729 56.25096191 90.89840332 55.97848633 91.70532227 55.69775391 C93.23522204 55.16375471 94.76083398 54.61724583 96.28100586 54.05615234 C101.47218987 52.24154267 106.31234681 51.36434052 111.8125 52.125 C114.0390625 53.296875 114.0390625 53.296875 115.4375 54.875 C115.92476563 55.38546875 116.41203125 55.8959375 116.9140625 56.421875 C117.8125 58.125 117.8125 58.125 117.62353516 60.02441406 C116.54958644 62.80594771 115.15310194 63.71614698 112.734375 65.4375 C111.90292969 66.03820312 111.07148438 66.63890625 110.21484375 67.2578125 C109.33957031 67.87398438 108.46429688 68.49015625 107.5625 69.125 C105.84840358 70.35339294 104.13484654 71.58253893 102.421875 72.8125 C101.61685547 73.38484375 100.81183594 73.9571875 99.98242188 74.546875 C98.22101811 75.82789592 96.51496142 77.18476973 94.828125 78.5625 C92.8125 80.125 92.8125 80.125 90.8125 80.125 C90.8125 80.785 90.8125 81.445 90.8125 82.125 C89.4925 82.455 88.1725 82.785 86.8125 83.125 C86.8125 83.785 86.8125 84.445 86.8125 85.125 C84.81956694 86.54983966 82.83496289 87.84679954 80.75 89.125 C79.45751589 89.93489484 78.1658767 90.74613933 76.875 91.55859375 C76.20339844 91.97995605 75.53179687 92.40131836 74.83984375 92.83544922 C71.60359817 94.89395707 68.42942527 97.04271547 65.25 99.1875 C59.49218705 103.05546946 53.64963878 106.74603575 47.71484375 110.3359375 C45.63105998 111.62042333 43.58503952 112.9669404 41.56640625 114.3515625 C38.8125 116.125 38.8125 116.125 36.8125 116.125 C36.8125 116.785 36.8125 117.445 36.8125 118.125 C34.75390625 119.48828125 34.75390625 119.48828125 31.8125 121.125 C30.68714844 121.79917969 29.56179687 122.47335937 28.40234375 123.16796875 C27.18529576 123.88349319 25.96784095 124.59832604 24.75 125.3125 C24.13833984 125.68052734 23.52667969 126.04855469 22.89648438 126.42773438 C19.49807679 128.40799566 17.84791947 129.125 13.8125 129.125 C10.20967878 120.93005828 7.33388696 112.70867822 4.8125 104.125 C4.55726562 103.35285156 4.30203125 102.58070313 4.0390625 101.78515625 C2.05737692 95.72290306 0.85351527 89.53820434 -0.34887695 83.28588867 C-1.53438297 77.20212485 -2.83158149 71.14915739 -4.1875 65.1015625 C-4.36593948 64.30533478 -4.54437897 63.50910706 -4.72822571 62.68875122 C-5.63222211 58.66306298 -6.54244164 54.63884961 -7.45776367 50.61572266 C-7.79874366 49.10320775 -8.13964844 47.59067589 -8.48046875 46.078125 C-8.63761353 45.39537506 -8.7947583 44.71262512 -8.95666504 44.00918579 C-10.53182924 36.99212434 -11.31731406 30.20335042 -11.28515625 23 C-11.28193359 21.71738281 -11.27871094 20.43476563 -11.27539062 19.11328125 C-11.26701172 17.79714844 -11.25863281 16.48101562 -11.25 15.125 C-11.24497487 13.76432456 -11.24041376 12.40364733 -11.23632812 11.04296875 C-11.22460459 7.73693275 -11.20819427 4.43098999 -11.1875 1.125 C-7.745114 -0.596193 -3.78694212 -0.01935796 0 0 Z " fill="#C0DDFD" transform="translate(99.1875,189.875)"/>
<path d="M0 0 C-0.61014072 3.57949225 -2.06110012 5.68454491 -4.3125 8.5 C-4.90675781 9.2528125 -5.50101563 10.005625 -6.11328125 10.78125 C-7.97757954 12.9736339 -9.95556766 14.97668783 -12 17 C-12.9590625 18.2065625 -12.9590625 18.2065625 -13.9375 19.4375 C-16.62140776 22.77205206 -19.61593872 25.71480024 -22.75 28.625 C-24.25659086 30.09616618 -24.25659086 30.09616618 -25 33 C-26.36560965 34.09248772 -27.73307665 35.18272757 -29.109375 36.26171875 C-32.51123775 39.38946446 -35.21836509 43.12806526 -38.046875 46.76953125 C-38.69140625 47.50558594 -39.3359375 48.24164063 -40 49 C-40.66 49 -41.32 49 -42 49 C-42.268125 49.639375 -42.53625 50.27875 -42.8125 50.9375 C-44 53 -44 53 -47 54 C-47.33 54.99 -47.66 55.98 -48 57 C-48.66 57 -49.32 57 -50 57 C-50.309375 57.79664063 -50.309375 57.79664063 -50.625 58.609375 C-52.57961192 62.00773436 -55.22123717 64.51055928 -58 67.25 C-58.5465625 67.80429687 -59.093125 68.35859375 -59.65625 68.9296875 C-63.7466133 73 -63.7466133 73 -66 73 C-66.38671875 73.87398437 -66.38671875 73.87398437 -66.78125 74.765625 C-68.09834017 77.1802903 -69.55088384 78.81740177 -71.5 80.75 C-72.1084375 81.36359375 -72.716875 81.9771875 -73.34375 82.609375 C-75 84 -75 84 -77 84 C-77.268125 84.639375 -77.53625 85.27875 -77.8125 85.9375 C-79 88 -79 88 -82 89 C-82.495 90.485 -82.495 90.485 -83 92 C-83.66 92 -84.32 92 -85 92 C-85 92.66 -85 93.32 -85 94 C-86.64453125 95.69140625 -86.64453125 95.69140625 -88.8125 97.5625 C-89.52019531 98.18253906 -90.22789062 98.80257812 -90.95703125 99.44140625 C-93 101 -93 101 -96 102 C-96 102.66 -96 103.32 -96 104 C-97.57421875 105.5859375 -97.57421875 105.5859375 -99.6875 107.375 C-100.41839844 107.99761719 -101.14929688 108.62023437 -101.90234375 109.26171875 C-103.50336862 110.58845258 -105.12273484 111.89308454 -106.75 113.1875 C-109.01513684 114.94598539 -109.01513684 114.94598539 -110.9375 116.9375 C-113.52570534 119.52570534 -116.06493464 121.79870098 -119 124 C-120.32 124 -121.64 124 -123 124 C-129.10899185 113.21027596 -133.96334831 102.35885021 -138.234375 90.72265625 C-139.51083457 87.25287212 -140.89475958 83.89604927 -142.5 80.5625 C-147.21873194 70.60967972 -150.69757229 59.93818819 -154.1640625 49.4921875 C-154.96548447 46.9512226 -154.96548447 46.9512226 -156.1875 44.4375 C-157.18763276 41.43710172 -156.99426299 39.9874789 -156 37 C-150.20463862 33.01934774 -142.8539009 32.29165536 -136 32 C-135.86464844 32.6084375 -135.72929687 33.216875 -135.58984375 33.84375 C-134.09744489 39.92058369 -132.05421717 45.5883744 -129.5625 51.3125 C-129.27431396 51.98152344 -128.98612793 52.65054688 -128.68920898 53.33984375 C-124.70303202 62.39586785 -124.70303202 62.39586785 -117 68 C-100.97508365 70.02419996 -86.39425552 59.37384862 -74.0625 50.375 C-71.5102644 48.6735096 -68.97920872 47.70560207 -66 47 C-66 46.34 -66 45.68 -66 45 C-63.796875 43.5546875 -63.796875 43.5546875 -60.75 41.875 C-55.08400513 38.67862522 -49.75212319 35.20652089 -44.3984375 31.50390625 C-42 30 -42 30 -40 30 C-40 29.34 -40 28.68 -40 28 C-38.0859375 26.66015625 -38.0859375 26.66015625 -35.375 25.0625 C-25.05863483 18.6761787 -15.76060367 10.93287957 -6.890625 2.6796875 C-4.33528187 0.40944463 -3.47620347 0 0 0 Z " fill="#D6E9FD" transform="translate(224,269)"/>
<path d="M0 0 C3.33969904 1.50478393 5.9742862 3.44367193 8.8125 5.75 C9.68648438 6.45769531 10.56046875 7.16539062 11.4609375 7.89453125 C13.65085143 9.71047527 15.80068204 11.55982805 17.9375 13.4375 C20.77283744 16.12775961 20.77283744 16.12775961 24 17 C24 17.66 24 18.32 24 19 C24.56460937 19.26683594 25.12921875 19.53367187 25.7109375 19.80859375 C28.1455985 21.07578079 30.3565705 22.51860233 32.625 24.0625 C35.72717946 26.17726651 35.72717946 26.17726651 39 28 C39 28.66 39 29.32 39 30 C39.73992187 30.27070313 40.47984375 30.54140625 41.2421875 30.8203125 C43.88122491 31.94919253 45.82892645 33.17200818 48.125 34.875 C53.85092978 38.97715865 59.78704907 42.70474447 65.75292969 46.44360352 C70.08176262 49.15697849 74.3899513 51.8943727 78.66357422 54.69384766 C95.90358448 66.02966243 95.90358448 66.02966243 116 68 C119.19854974 66.73378237 121.42490994 65.15018013 123 62 C123.66 62 124.32 62 125 62 C125.18175781 61.43152344 125.36351562 60.86304688 125.55078125 60.27734375 C126.71429393 56.70327147 127.89054589 53.2427026 129.4375 49.8125 C131.97277763 44.14858189 133.36872492 37.97030118 135 32 C140.42121998 31.72091532 144.37857235 32.57278947 149.4375 34.5 C150.07365234 34.73847656 150.70980469 34.97695313 151.36523438 35.22265625 C152.91402732 35.80490924 154.45760253 36.40101069 156 37 C156 38.98 156 40.96 156 43 C155.34 43 154.68 43 154 43 C153.83479858 44.74639771 153.83479858 44.74639771 153.66625977 46.52807617 C153.13191498 50.76763045 151.90621616 54.58786651 150.33984375 58.55078125 C150.07417603 59.24330994 149.8085083 59.93583862 149.53479004 60.64935303 C148.67821795 62.87408703 147.80841884 65.09334764 146.9375 67.3125 C146.34273472 68.84610004 145.74841704 70.37987374 145.15454102 71.91381836 C140.9671021 82.69211456 136.65214065 93.41287173 132 104 C131.67435059 104.75063721 131.34870117 105.50127441 131.01318359 106.2746582 C129.09946511 110.64867651 127.07544276 114.88727322 124.75 119.0625 C124.22921875 120.00222656 123.7084375 120.94195312 123.171875 121.91015625 C122.59179688 122.94462891 122.59179688 122.94462891 122 124 C117.17024285 123.57849392 114.6867782 121.26856921 111.375 118 C110.31360666 116.98705336 109.24975608 115.97667589 108.18359375 114.96875 C107.6510498 114.46472656 107.11850586 113.96070313 106.56982422 113.44140625 C104.28447599 111.34300875 101.86898581 109.42565303 99.4375 107.5 C94.42419806 103.47339714 89.96971416 99.09554017 85.5078125 94.48046875 C83.119085 92.11778657 80.62346575 90.09301578 78 88 C76.31462354 86.35225555 74.64889716 84.68424871 73 83 C72.03727992 82.05642211 71.07237411 81.11506992 70.10546875 80.17578125 C69.13278804 79.2213791 68.16013192 78.26695188 67.1875 77.3125 C66.68541016 76.82716797 66.18332031 76.34183594 65.66601562 75.84179688 C64.40582727 74.59875394 63.19808956 73.30300108 62 72 C62 71.34 62 70.68 62 70 C61.41089844 69.74992187 60.82179688 69.49984375 60.21484375 69.2421875 C57.70690295 67.83561753 56.37575422 66.34445666 54.5625 64.125 C51.93315004 60.99698022 49.2144065 58.5325627 46 56 C46 55.34 46 54.68 46 54 C45.4328125 53.76925781 44.865625 53.53851563 44.28125 53.30078125 C41.41536876 51.66664006 39.67086998 49.66690116 37.5 47.1875 C36.37078125 45.90939453 36.37078125 45.90939453 35.21875 44.60546875 C29 37.3028169 29 37.3028169 29 35 C28.360625 34.7525 27.72125 34.505 27.0625 34.25 C24.455699 32.67012061 24.70804922 31.83219689 24 29 C22.68596724 28.29605388 21.3479743 27.63654342 20 27 C15.82499567 23.28888504 12.51004458 18.95435345 9.0703125 14.56640625 C6.6010429 11.50544375 3.96266458 8.63493829 1.25 5.7890625 C0 4 0 4 0 0 Z " fill="#D7E9FD" transform="translate(290,269)"/>
<path d="M0 0 C4.9329973 3.13055598 7.86248269 7.1091642 11 12 C11 12.66 11 13.32 11 14 C20.46791903 15.27102663 20.46791903 15.27102663 28.9296875 12.4296875 C30.09812317 10.38300091 30.09812317 10.38300091 31.02734375 8.1796875 C32.72577681 4.37356041 35.30409742 1.88932333 39 0 C44.13590239 -0.95929211 48.38488492 -0.8240383 53.0625 1.5625 C58.80492142 8.78683662 57.9832694 20.27609915 57 29 C55.95827995 32.65107707 54.41549977 35.09800613 52 38 C51.35675781 38.81597656 50.71351563 39.63195312 50.05078125 40.47265625 C44.78149045 46.74472053 38.86550628 51.5660272 32 56 C30.948125 56.68449219 30.948125 56.68449219 29.875 57.3828125 C24.77166212 60.32546297 19.79658259 61.26236687 14 60 C9.98787913 58.10012588 6.5417445 55.66136801 3 53 C1.67742187 52.04480469 1.67742187 52.04480469 0.328125 51.0703125 C-8.19159823 44.64179406 -15.69076461 36.71756895 -18 26 C-18.35081345 22.91498952 -18.49523417 19.85330117 -18.5625 16.75 C-18.58948975 15.98115479 -18.61647949 15.21230957 -18.64428711 14.42016602 C-18.6168529 10.40998192 -18.24014377 7.7747073 -15.71484375 4.578125 C-10.85028202 -0.0414588 -6.61361693 -1.10611015 0 0 Z " fill="#FEDEE7" transform="translate(237,192)"/>
<path d="M0 0 C10.4996345 3.94196804 20.49462679 9.04966946 30.25390625 14.546875 C33.59701916 16.38887639 37.01142605 18.06810915 40.4375 19.75 C40.4375 20.41 40.4375 21.07 40.4375 21.75 C41.13875 22.018125 41.84 22.28625 42.5625 22.5625 C45.6024824 23.8181449 48.5102774 25.25235123 51.4375 26.75 C51.4375 27.41 51.4375 28.07 51.4375 28.75 C52.14390625 29.01941406 52.8503125 29.28882813 53.578125 29.56640625 C56.54612518 30.7949637 59.3508234 32.18099472 62.1875 33.6875 C63.15171875 34.19152344 64.1159375 34.69554687 65.109375 35.21484375 C67.4375 36.75 67.4375 36.75 68.4375 39.75 C67.7775 40.74 67.1175 41.73 66.4375 42.75 C61.18355917 41.98265842 56.37477345 40.5287226 51.33984375 38.8828125 C42.03714049 36.05532977 32.52649967 34.21661683 22.875 33.125 C21.77889404 33.00020264 20.68278809 32.87540527 19.5534668 32.74682617 C0.9378551 30.86490984 -17.86870487 30.97879011 -36.5625 30.75 C-36.70898438 25.97167969 -36.70898438 25.97167969 -35.390625 23.9765625 C-34.86984375 23.44804687 -34.3490625 22.91953125 -33.8125 22.375 C-31.2646467 19.61879421 -29.41942451 16.89781035 -27.625 13.578125 C-20.88789491 1.98634125 -13.75862062 -4.45701795 0 0 Z " fill="#ACD1FE" transform="translate(144.5625,141.25)"/>
<path d="M0 0 C3.49954079 -0.20277713 5.59223798 -0.10343068 8.5234375 1.8828125 C14.66893029 7.54893768 20.32918516 15.65285219 24.02734375 23.19140625 C24.02734375 24.18140625 24.02734375 25.17140625 24.02734375 26.19140625 C24.68734375 26.19140625 25.34734375 26.19140625 26.02734375 26.19140625 C26.52234375 29.16140625 26.52234375 29.16140625 27.02734375 32.19140625 C25.94243652 32.20598877 24.8575293 32.22057129 23.73974609 32.2355957 C-4.56495019 32.64442712 -32.70610978 33.22107536 -60.45703125 39.421875 C-63.97265625 40.19140625 -63.97265625 40.19140625 -65.97265625 40.19140625 C-65.97265625 40.85140625 -65.97265625 41.51140625 -65.97265625 42.19140625 C-70.92265625 42.68640625 -70.92265625 42.68640625 -75.97265625 43.19140625 C-76.30265625 41.87140625 -76.63265625 40.55140625 -76.97265625 39.19140625 C-71.59614348 34.76368985 -66.42568127 31.3764988 -60.16015625 28.37890625 C-55.26512784 25.99182449 -51.30971933 23.23584705 -47.125 19.78515625 C-44.28972505 17.68571491 -41.33156248 16.46199741 -38.07421875 15.15234375 C-35.99235615 14.20041401 -34.49162856 13.12924089 -32.72265625 11.69140625 C-28.64013491 8.57955432 -24.01022792 7.54503885 -19.12890625 6.16796875 C-16.38500651 5.31898987 -14.05751664 4.35239892 -11.53515625 3.00390625 C-7.51120805 0.95663436 -4.41856453 0.428732 0 0 Z " fill="#ACD1FE" transform="translate(377.97265625,139.80859375)"/>
<path d="M0 0 C3.76250903 1.91964746 4.69414592 3.13377756 6.09375 7.09765625 C8.22457251 15.11877791 8.96317434 26.49456454 5.0625 34 C3.66796875 35.99609375 3.66796875 35.99609375 2 38 C1.35675781 38.81597656 0.71351563 39.63195312 0.05078125 40.47265625 C-5.21850955 46.74472053 -11.13449372 51.5660272 -18 56 C-19.051875 56.68449219 -19.051875 56.68449219 -20.125 57.3828125 C-25.22833788 60.32546297 -30.20341741 61.26236687 -36 60 C-43.76964761 56.32081064 -50.43852579 50.47975612 -57 45 C-55.02 44.505 -55.02 44.505 -53 44 C-53 44.99 -53 45.98 -53 47 C-51.68 47.33 -50.36 47.66 -49 48 C-49 48.66 -49 49.32 -49 50 C-47.02 50.33 -45.04 50.66 -43 51 C-43 51.66 -43 52.32 -43 53 C-42.46375 53.268125 -41.9275 53.53625 -41.375 53.8125 C-39 55 -39 55 -36.375 56.6875 C-31.70919985 58.50197784 -27.85696936 57.79669656 -23 57 C-22.67 55.68 -22.34 54.36 -22 53 C-17.25 52 -17.25 52 -15 52 C-15 51.34 -15 50.68 -15 50 C-13.02 49.505 -13.02 49.505 -11 49 C-11 48.34 -11 47.68 -11 47 C-10.34 47 -9.68 47 -9 47 C-9 46.34 -9 45.68 -9 45 C-7.55558208 43.74817113 -6.10701493 42.49910559 -4.60546875 41.31640625 C-1.55740072 38.81713879 0.40790885 36.56938632 2.125 33 C2.45757812 32.319375 2.79015625 31.63875 3.1328125 30.9375 C6.02120858 24.48414659 6.00539109 16.487297 4.46875 9.62890625 C3.08156545 6.12324965 1.38314521 3.6915726 -2 2 C-4.45709375 1.41649495 -4.45709375 1.41649495 -7 2 C-7.845625 2.680625 -8.69125 3.36125 -9.5625 4.0625 C-12 6 -12 6 -14.3125 5.75 C-14.869375 5.5025 -15.42625 5.255 -16 5 C-11.69464771 -0.93841695 -7.04484786 -1.12293816 0 0 Z " fill="#E7DCF2" transform="translate(287,192)"/>
<path d="M0 0 C0.66 0.33 1.32 0.66 2 1 C1.06558465 2.27310312 0.12732889 3.543388 -0.8125 4.8125 C-1.33457031 5.52019531 -1.85664062 6.22789062 -2.39453125 6.95703125 C-3.84252498 8.79961207 -5.23101505 10.46364869 -7 12 C-7.66 12 -8.32 12 -9 12 C-9.268125 12.763125 -9.53625 13.52625 -9.8125 14.3125 C-10.95134505 16.88988618 -11.81416671 18.26954864 -14 20 C-14.66 20 -15.32 20 -16 20 C-16.1546875 21.8871875 -16.1546875 21.8871875 -16.3125 23.8125 C-16.81006098 27.73770325 -16.81006098 27.73770325 -18.3125 29.8125 C-18.869375 30.204375 -19.42625 30.59625 -20 31 C-23.37294115 33.28558691 -23.37294115 33.28558691 -25 37 C-25.66 37 -26.32 37 -27 37 C-21.37042472 22.40480484 -12.2088491 9.76118128 0 0 Z " fill="#B7D0EB" transform="translate(119,123)"/>
<path d="M0 0 C4.95481345 3.14440084 7.76831438 7.15247158 11 12 C10.67 12.66 10.34 13.32 10 14 C7.2175651 12.60878255 6.44789935 10.69835788 5 8 C5 7.34 5 6.68 5 6 C4.21625 5.71125 3.4325 5.4225 2.625 5.125 C0 4 0 4 -2 2 C-5.50028317 1.29994337 -7.72416598 2.14715237 -10.6875 3.9375 C-14.13843673 6.63659867 -15.20155798 9.04536874 -15.85546875 13.328125 C-16.26617133 20.92057266 -16.20262844 27.52047583 -12 34 C-12 34.66 -12 35.32 -12 36 C-11.34 36 -10.68 36 -10 36 C-9.34 37.98 -8.68 39.96 -8 42 C-13.84628855 38.1024743 -16.52461645 32.73249735 -18 26 C-18.28338255 23.04492979 -18.32227185 20.09215658 -18.375 17.125 C-18.43107422 15.93970703 -18.43107422 15.93970703 -18.48828125 14.73046875 C-18.55003244 10.60686129 -18.33951785 7.85241736 -15.7265625 4.5546875 C-10.83571049 -0.02785865 -6.61368733 -1.10612192 0 0 Z " fill="#E9DEF2" transform="translate(237,192)"/>
<path d="M0 0 C14.85587364 -1.03245454 14.85587364 -1.03245454 19.375 2.6875 C24.14543108 7.42123546 23.23082367 14.4089078 23.25976562 20.67773438 C23.18393947 27.06462999 21.93685216 32.91275034 20 39 C18.68 39 17.36 39 16 39 C17.86189258 34.21227621 17.86189258 34.21227621 19.0546875 32.37890625 C20.51605967 28.70132091 20.28820267 25.10645701 20.25 21.1875 C20.25773437 20.40568359 20.26546875 19.62386719 20.2734375 18.81835938 C20.25292345 10.30094043 20.25292345 10.30094043 16.20703125 3.09765625 C11.95893434 0.98488593 7.59748702 1.16468194 3 2 C0.22377742 3.64569895 -1.884606 5.57415569 -4 8 C-4.33 7.01 -4.66 6.02 -5 5 C-4.360625 4.731875 -3.72125 4.46375 -3.0625 4.1875 C-0.66868314 3.11332248 -0.66868314 3.11332248 0 0 Z " fill="#AFBEE3" transform="translate(273,191)"/>
<path d="M0 0 C5.25144641 1.39008876 7.87300672 4.8042875 11 9 C11.33 9.66 11.66 10.32 12 11 C12.763125 11 13.52625 11 14.3125 11 C18.47743063 11 21.16065025 11.33974065 25 13 C25 12.34 25 11.68 25 11 C25.99 11 26.98 11 28 11 C28.66 9.68 29.32 8.36 30 7 C30.33 7.99 30.66 8.98 31 10 C29.50390625 12.65625 29.50390625 12.65625 27 15 C23.65234375 15.59375 23.65234375 15.59375 19.9375 15.5 C18.70902344 15.4896875 17.48054688 15.479375 16.21484375 15.46875 C13 15 13 15 11.25 13.71484375 C10.63125 12.86599609 10.63125 12.86599609 10 12 C9.51660156 11.37222656 9.03320312 10.74445313 8.53515625 10.09765625 C8.04917969 9.42605469 7.56320313 8.75445312 7.0625 8.0625 C4.89606277 5.12889546 2.68876811 2.48193979 0 0 Z " fill="#A9BCE1" transform="translate(237,192)"/>
<path d="M0 0 C2.75073158 2.43664931 5.38883936 4.98060276 7.9921875 7.57421875 C7.6621875 8.23421875 7.3321875 8.89421875 6.9921875 9.57421875 C1.1171875 4.82421875 1.1171875 4.82421875 -0.0078125 2.57421875 C-10.37164064 -3.30217865 -20.47387375 -2.97385648 -32.0078125 -2.42578125 C-22.97192589 -8.44970565 -8.20154339 -6.61449148 0 0 Z " fill="#C5D8EE" transform="translate(397.0078125,125.42578125)"/>
<path d="M0 0 C0.33 0 0.66 0 1 0 C2.51439512 5.62489615 3.57935112 11.22424434 4.4921875 16.9765625 C4.95928657 19.75759853 5.52326921 22.4955985 6.125 25.25 C7.02386126 29.58981453 7.16384791 33.57610651 7 38 C7.66 38 8.32 38 9 38 C9 40.97 9 43.94 9 47 C5.67413268 42.01119901 5.12122114 36.0641597 3.9375 30.25 C3.80204773 29.59504547 3.66659546 28.94009094 3.52703857 28.26528931 C1.59064006 18.85432307 0.03326207 9.62936902 0 0 Z " fill="#BDD2EC" transform="translate(71,226)"/>
<path d="M0 0 C0.66 0.33 1.32 0.66 2 1 C1.46890625 1.32613281 0.9378125 1.65226563 0.390625 1.98828125 C-4.15797599 4.80210558 -8.44747219 7.60670581 -12.4375 11.1875 C-15.29290252 13.20717495 -16.58879422 13.38985209 -20 13 C-20 13.66 -20 14.32 -20 15 C-22.64 15.33 -25.28 15.66 -28 16 C-23.21320867 11.70839398 -17.65979347 8.95262185 -12 6 C-10.906875 5.42121094 -9.81375 4.84242188 -8.6875 4.24609375 C-7.615 3.69050781 -6.5425 3.13492188 -5.4375 2.5625 C-4.44621094 2.04816406 -3.45492188 1.53382813 -2.43359375 1.00390625 C-1.22896484 0.50697266 -1.22896484 0.50697266 0 0 Z " fill="#BDD2ED" transform="translate(347,129)"/>
<path d="M0 0 C0.33 0 0.66 0 1 0 C0.42814761 5.94726483 -0.81767599 11.49878405 -2.37890625 17.265625 C-3.14766712 20.18276908 -3.14766712 20.18276908 -3 24 C-0.36 24.66 2.28 25.32 5 26 C3.375 27.125 3.375 27.125 1 28 C-2.34364519 27.33127096 -4.32950336 26.87456083 -6.4375 24.125 C-7.11357776 21.57092845 -6.71004726 20.53337849 -6 18 C-5.75121094 17.00484375 -5.50242187 16.0096875 -5.24609375 14.984375 C-4.49739583 11.98958333 -3.74869792 8.99479167 -3 6 C-2.34 6 -1.68 6 -1 6 C-0.67 4.02 -0.34 2.04 0 0 Z " fill="#B2CBE9" transform="translate(436,258)"/>
<path d="M0 0 C1.65 0 3.3 0 5 0 C3.8553125 0.86625 3.8553125 0.86625 2.6875 1.75 C-1.4451509 5.06007666 -1.4451509 5.06007666 -3.30151367 9.84765625 C-3.44222124 12.11562301 -3.46571255 14.35284013 -3.4375 16.625 C-3.43355225 17.42881104 -3.42960449 18.23262207 -3.42553711 19.06079102 C-3.2728661 25.39184681 -1.95890355 30.37927157 1 36 C1.33 36.99 1.66 37.98 2 39 C1.01 39.495 1.01 39.495 0 40 C-5.49562861 33.39059397 -5.65593028 27.54275398 -5.375 19.1875 C-5.36082031 18.05634766 -5.34664062 16.92519531 -5.33203125 15.75976562 C-5.18545469 7.55636407 -5.18545469 7.55636407 -4 4 C-3.34 4 -2.68 4 -2 4 C-1.34 2.68 -0.68 1.36 0 0 Z " fill="#AEBEE0" transform="translate(223,192)"/>
<path d="M0 0 C1 2 1 2 0.45849609 3.72070312 C-0.00435791 4.74067383 -0.00435791 4.74067383 -0.4765625 5.78125 C-0.81558594 6.53680176 -1.15460938 7.29235352 -1.50390625 8.07080078 C-1.87386719 8.87243652 -2.24382812 9.67407227 -2.625 10.5 C-2.99238281 11.31065918 -3.35976563 12.12131836 -3.73828125 12.95654297 C-6.35884589 18.70454462 -9.07363262 24.40050858 -12 30 C-13.04449911 26.86650268 -12.93423645 26.01031744 -12 23 C-11.34 23 -10.68 23 -10 23 C-9.86207031 22.43796875 -9.72414063 21.8759375 -9.58203125 21.296875 C-7.7604983 14.10854364 -5.6543453 7.48351586 -2 1 C-1.34 0.67 -0.68 0.34 0 0 Z " fill="#B2CBE7" transform="translate(442,371)"/>
<path d="M0 0 C3.41664873 -0.02908357 6.8332655 -0.04682691 10.25 -0.0625 C11.70212891 -0.07506836 11.70212891 -0.07506836 13.18359375 -0.08789062 C14.11816406 -0.09111328 15.05273438 -0.09433594 16.015625 -0.09765625 C16.87446289 -0.10289307 17.73330078 -0.10812988 18.61816406 -0.11352539 C20.93519057 -0.00308901 22.82171089 0.20210384 25 1 C26.703125 3.6171875 26.703125 3.6171875 28.25 6.875 C28.77078125 7.94492187 29.2915625 9.01484375 29.828125 10.1171875 C31 13 31 13 31 16 C30.28972656 15.07316406 29.57945312 14.14632813 28.84765625 13.19140625 C27.91930895 11.98174158 26.99092145 10.77210776 26.0625 9.5625 C25.35963867 8.64500977 25.35963867 8.64500977 24.64257812 7.70898438 C22.44328176 4.75031115 22.44328176 4.75031115 20 2 C18.5112814 1.91330568 17.018555 1.89296506 15.52734375 1.90234375 C14.17866211 1.90717773 14.17866211 1.90717773 12.80273438 1.91210938 C11.38444336 1.92467773 11.38444336 1.92467773 9.9375 1.9375 C8.98810547 1.94201172 8.03871094 1.94652344 7.06054688 1.95117188 C4.70696935 1.9629989 2.35351523 1.97947975 0 2 C0 1.34 0 0.68 0 0 Z " fill="#C1D7ED" transform="translate(246,270)"/>
<path d="M0 0 C0.33 0.99 0.66 1.98 1 3 C0.01 3.33 -0.98 3.66 -2 4 C-2.13148438 5.11955078 -2.13148438 5.11955078 -2.265625 6.26171875 C-3.13914906 9.51884837 -4.22058721 10.63016829 -6.75 12.8125 C-7.76320313 13.71935547 -7.76320313 13.71935547 -8.796875 14.64453125 C-11.40779596 16.25089574 -12.98829554 16.2685261 -16 16 C-13.25262864 13.16937496 -10.47076281 10.52336087 -7.4375 8 C-4.56771351 5.58135899 -2.23187489 3.03534984 0 0 Z " fill="#A5BCE4" transform="translate(288,230)"/>
<path d="M0 0 C1.15006091 3.37299744 0.85199953 5.34853215 -0.3125 8.6875 C-0.57675781 9.47511719 -0.84101562 10.26273438 -1.11328125 11.07421875 C-2 13 -2 13 -4 14 C-5.39457524 14.10224992 -6.79080232 14.18268927 -8.1875 14.25 C-13.36219333 14.74402412 -16.04692665 16.7197902 -20 20 C-18.76071792 16.14445574 -16.39396466 14.74480556 -12.9375 12.84375 C-11 12 -11 12 -7.3125 11.375 C-3.88002492 10.34793182 -3.88002492 10.34793182 -2.671875 7.65625 C-1.66289811 5.12670231 -0.77526784 2.60990788 0 0 Z " fill="#C8DDF2" transform="translate(91,160)"/>
<path d="M0 0 C0 3.48354205 -0.45035158 3.88427053 -2.6875 6.375 C-3.23921875 6.98988281 -3.7909375 7.60476563 -4.359375 8.23828125 C-8.64171164 12.83669512 -13.19140252 16.96742978 -18 21 C-18.66 20.67 -19.32 20.34 -20 20 C-15.93271189 15.10654399 -11.72019588 10.72593464 -6.8671875 6.609375 C-4.44537851 4.52195805 -2.22485957 2.29438644 0 0 Z " fill="#A3C2E9" transform="translate(171,330)"/>
<path d="M0 0 C2.1328125 0.39453125 2.1328125 0.39453125 4 1 C3.43410156 1.55429687 2.86820313 2.10859375 2.28515625 2.6796875 C1.55167969 3.40414063 0.81820312 4.12859375 0.0625 4.875 C-0.66839844 5.59429687 -1.39929688 6.31359375 -2.15234375 7.0546875 C-4.05667999 8.87027192 -4.05667999 8.87027192 -5 11 C-5.66 11 -6.32 11 -7 11 C-7 11.66 -7 12.32 -7 13 C-7.66 13 -8.32 13 -9 13 C-9 13.66 -9 14.32 -9 15 C-9.66 15 -10.32 15 -11 15 C-11.33 15.66 -11.66 16.32 -12 17 C-12 15.68 -12 14.36 -12 13 C-11.34 13 -10.68 13 -10 13 C-9.34 11.35 -8.68 9.7 -8 8 C-7.34 8 -6.68 8 -6 8 C-5.7525 7.4225 -5.505 6.845 -5.25 6.25 C-3.7872851 3.61711318 -2.36173231 1.87549331 0 0 Z " fill="#B4CCEA" transform="translate(192,332)"/>
<path d="M0 0 C0.66 0.33 1.32 0.66 2 1 C-1.83877909 5.63852473 -6.42465768 7.552326 -12.30859375 8.2890625 C-17.29961215 8.47422676 -20.65704268 7.67258912 -25 5 C-24.67 4.34 -24.34 3.68 -24 3 C-23.38125 3.33 -22.7625 3.66 -22.125 4 C-16.81589403 5.69891391 -11.60287921 6.16735189 -6.421875 3.84375 C-4.86004594 2.93688152 -3.32056652 1.98980187 -1.8125 0.99609375 C-1.214375 0.66738281 -0.61625 0.33867187 0 0 Z " fill="#AABCDF" transform="translate(270,246)"/>
<path d="M0 0 C1.125 1.6875 1.125 1.6875 2 4 C0.67233066 9.17791041 -2.29773287 12.85195937 -6.6875 15.8125 C-10.90670548 17.32504536 -14.56919757 17.26584815 -19 17 C-19 16.67 -19 16.34 -19 16 C-13.555 15.505 -13.555 15.505 -8 15 C-8 14.34 -8 13.68 -8 13 C-7.34 13 -6.68 13 -6 13 C-5.731875 12.236875 -5.46375 11.47375 -5.1875 10.6875 C-4 8 -4 8 -2.4375 6.5 C-0.51406665 4.49293911 -0.36531415 2.70332474 0 0 Z " fill="#C0D4EB" transform="translate(427,397)"/>
<path d="M0 0 C0.66 0.33 1.32 0.66 2 1 C2.1953125 7.0546875 2.1953125 7.0546875 2 9 C0 11 0 11 -2.3828125 11.1953125 C-3.28773437 11.17210937 -4.19265625 11.14890625 -5.125 11.125 C-6.49011719 11.09792969 -6.49011719 11.09792969 -7.8828125 11.0703125 C-8.58148438 11.04710937 -9.28015625 11.02390625 -10 11 C-10 10.34 -10 9.68 -10 9 C-6.7 8.34 -3.4 7.68 0 7 C0 4.69 0 2.38 0 0 Z " fill="#ADC7E7" transform="translate(82,275)"/>
<path d="M0 0 C1.18371458 3.95489135 0.99356814 7.57108755 0.83984375 11.66015625 C0.82421099 14.2742853 0.82421099 14.2742853 3 17 C3.66796875 19.33984375 3.66796875 19.33984375 4.1875 21.9375 C4.36667969 22.79214844 4.54585937 23.64679688 4.73046875 24.52734375 C5.00123705 27.01134859 4.77059444 28.64449502 4 31 C0.49971345 21.26170278 -2.16154808 12.5203069 -1 2 C-0.67 1.34 -0.34 0.68 0 0 Z " fill="#C8DAF0" transform="translate(49,298)"/>
<path d="M0 0 C7.60469172 0.84919058 14.01682421 1.94949573 20 7 C20 7.33 20 7.66 20 8 C18.35 8 16.7 8 15 8 C15 7.34 15 6.68 15 6 C14.319375 5.87625 13.63875 5.7525 12.9375 5.625 C8.53967829 4.68929325 4.26384709 3.42128236 0 2 C0 1.34 0 0.68 0 0 Z " fill="#B5CFEA" transform="translate(230,171)"/>
<path d="M0 0 C0.99 0.33 1.98 0.66 3 1 C1.35790421 3.16959299 -0.28842168 5.33572532 -1.9375 7.5 C-2.40607422 8.12003906 -2.87464844 8.74007813 -3.35742188 9.37890625 C-4.54790464 10.93766786 -5.77141292 12.47109164 -7 14 C-7.33 14 -7.66 14 -8 14 C-8 12.35 -8 10.7 -8 9 C-7.34 9 -6.68 9 -6 9 C-5.87625 8.401875 -5.7525 7.80375 -5.625 7.1875 C-5 5 -5 5 -3 2 C-2.34 2 -1.68 2 -1 2 C-0.67 1.34 -0.34 0.68 0 0 Z " fill="#BAD1EC" transform="translate(238,279)"/>
<path d="M0 0 C0.33 0 0.66 0 1 0 C1.33706931 9.83743016 1.02149686 18.50386702 -2 28 C-3.32 28 -4.64 28 -6 28 C-5.731875 27.34 -5.46375 26.68 -5.1875 26 C-4.795625 25.01 -4.40375 24.02 -4 23 C-3.2265625 21.329375 -3.2265625 21.329375 -2.4375 19.625 C-0.07176817 13.4358632 -0.24745925 6.5534037 0 0 Z " fill="#A7B9DF" transform="translate(295,202)"/>
<path d="M0 0 C0.66 0.33 1.32 0.66 2 1 C-7.09801136 10.35795455 -7.09801136 10.35795455 -14 11 C-9.85989729 6.45924219 -5.17609824 3.28157862 0 0 Z " fill="#BDD3EC" transform="translate(308,151)"/>
<path d="M0 0 C6.26418531 1.48362284 10.91513505 5.24162156 16 9 C14.68 9.33 13.36 9.66 12 10 C11.67 9.01 11.34 8.02 11 7 C9.9171875 7.12375 9.9171875 7.12375 8.8125 7.25 C5.10642187 6.92057083 3.63241879 5.55929605 1 3 C0.67 2.01 0.34 1.02 0 0 Z " fill="#BED3ED" transform="translate(190,143)"/>
<path d="M0 0 C0.66 0 1.32 0 2 0 C1.41523944 7.09406894 0.36766005 14.01563899 -1 21 C-1.33 21 -1.66 21 -2 21 C-2.2494783 13.70968976 -1.72330907 7.09326321 0 0 Z " fill="#C4D3ED" transform="translate(439,236)"/>
<path d="M0 0 C2.875 0.25 2.875 0.25 6 1 C7.1875 3 7.1875 3 8 5 C8.99 5.33 9.98 5.66 11 6 C11 7.32 11 8.64 11 10 C10.34 10 9.68 10 9 10 C9 9.34 9 8.68 9 8 C8.34 8 7.68 8 7 8 C7 7.34 7 6.68 7 6 C6.34 6 5.68 6 5 6 C5 5.34 5 4.68 5 4 C4.01 3.67 3.02 3.34 2 3 C2 2.34 2 1.68 2 1 C1.34 0.67 0.68 0.34 0 0 Z " fill="#B8CDEB" transform="translate(336,352)"/>
<path d="M0 0 C0.70125 0.721875 1.4025 1.44375 2.125 2.1875 C4.92770745 4.99823813 7.92262792 7.49516226 11 10 C9.296875 10.74609375 9.296875 10.74609375 7 11 C4.640625 9.34765625 4.640625 9.34765625 2.25 7.0625 C1.05117188 5.93521484 1.05117188 5.93521484 -0.171875 4.78515625 C-0.77515625 4.19605469 -1.3784375 3.60695313 -2 3 C-1.34 2.67 -0.68 2.34 0 2 C0 1.34 0 0.68 0 0 Z " fill="#B3C9E9" transform="translate(388,396)"/>
<path d="M0 0 C0.66 0 1.32 0 2 0 C1.48118887 4.1724106 0.28848726 6.25416821 -2.5625 9.3125 C-3.20316406 10.00988281 -3.84382812 10.70726562 -4.50390625 11.42578125 C-4.99761719 11.94527344 -5.49132812 12.46476562 -6 13 C-7.125 9.25 -7.125 9.25 -6 7 C-5.34 7 -4.68 7 -4 7 C-3.34 5.68 -2.68 4.36 -2 3 C-1.34 3 -0.68 3 0 3 C0 2.01 0 1.02 0 0 Z " fill="#B5CEE9" transform="translate(227,292)"/>
<path d="M0 0 C-1.59887554 1.48488441 -3.20428905 2.96273145 -4.8125 4.4375 C-5.70582031 5.26121094 -6.59914063 6.08492188 -7.51953125 6.93359375 C-10 9 -10 9 -13 10 C-13 9.01 -13 8.02 -13 7 C-12.01 7 -11.02 7 -10 7 C-9.87625 6.360625 -9.7525 5.72125 -9.625 5.0625 C-9.41875 4.381875 -9.2125 3.70125 -9 3 C-8.34 2.67 -7.68 2.34 -7 2 C-6.34 2.33 -5.68 2.66 -5 3 C-5.33 2.01 -5.66 1.02 -6 0 C-2.25 -1.125 -2.25 -1.125 0 0 Z " fill="#BCD2EC" transform="translate(131,396)"/>
<path d="M0 0 C1.36420006 4.09260018 -0.2335485 6.47012659 -1.9375 10.1875 C-2.22818359 10.84169922 -2.51886719 11.49589844 -2.81835938 12.16992188 C-3.53695343 13.78381344 -4.2673588 15.39243655 -5 17 C-5.33 17 -5.66 17 -6 17 C-6 15.02 -6 13.04 -6 11 C-5.34 11 -4.68 11 -4 11 C-4 8.69 -4 6.38 -4 4 C-3.01 4 -2.02 4 -1 4 C-0.67 2.68 -0.34 1.36 0 0 Z " fill="#BFD1EB" transform="translate(454,341)"/>
<path d="M0 0 C6.38263338 0.4162587 11.55804099 2.65350796 17 6 C17.33 6.66 17.66 7.32 18 8 C16.68 8 15.36 8 14 8 C14 7.34 14 6.68 14 6 C12.35 5.67 10.7 5.34 9 5 C9 4.34 9 3.68 9 3 C7.88625 3.020625 6.7725 3.04125 5.625 3.0625 C2 3 2 3 0 2 C0 1.34 0 0.68 0 0 Z " fill="#C6D7EF" transform="translate(441,285)"/>
<path d="M0 0 C-0.969375 0.53625 -1.93875 1.0725 -2.9375 1.625 C-7.44190521 4.19103412 -11.71582398 7.08559454 -16 10 C-14.66160169 5.5938123 -13.07561856 3.93441203 -9.125 1.625 C-8.26132812 1.10164063 -7.39765625 0.57828125 -6.5078125 0.0390625 C-3.75382091 -1.10199943 -2.72234329 -1.07627525 0 0 Z " fill="#C9DBEF" transform="translate(66,288)"/>
<path d="M0 0 C3.00842019 1.50421009 3.6800737 3.85135617 5.1875 6.8125 C5.73792969 7.87082031 6.28835938 8.92914063 6.85546875 10.01953125 C8.01199085 13.03122531 8.21992215 14.0877003 7 17 C6.67 15.68 6.34 14.36 6 13 C5.34 13 4.68 13 4 13 C0.71428571 4.57142857 0.71428571 4.57142857 0 0 Z " fill="#C0D3ED" transform="translate(416,151)"/>
<path d="M0 0 C-0.33 1.65 -0.66 3.3 -1 5 C-2.98 5.33 -4.96 5.66 -7 6 C-7 6.66 -7 7.32 -7 8 C-7.99 8 -8.98 8 -10 8 C-10 7.34 -10 6.68 -10 6 C-9.34 6 -8.68 6 -8 6 C-8 5.34 -8 4.68 -8 4 C-2.58823529 0 -2.58823529 0 0 0 Z " fill="#B3CBEB" transform="translate(269,175)"/>
<path d="M0 0 C0.66 0.33 1.32 0.66 2 1 C-1.28125 8.03125 -1.28125 8.03125 -4 10 C-7.13671875 10.29296875 -7.13671875 10.29296875 -10.6875 10.1875 C-12.45673828 10.14689453 -12.45673828 10.14689453 -14.26171875 10.10546875 C-15.16535156 10.07066406 -16.06898438 10.03585938 -17 10 C-17 9.67 -17 9.34 -17 9 C-15.78763672 9.0309375 -15.78763672 9.0309375 -14.55078125 9.0625 C-8.27136619 9.15303614 -8.27136619 9.15303614 -3.08984375 6.15234375 C-1.87228601 4.13964627 -0.85751522 2.18865802 0 0 Z " fill="#DDD9F0" transform="translate(269,198)"/>
<path d="M0 0 C2 1 2 1 3 3 C-1.455 5.97 -1.455 5.97 -6 9 C-6.66 8.34 -7.32 7.68 -8 7 C-6.625 5.5 -6.625 5.5 -5 4 C-4.34 4 -3.68 4 -3 4 C-3 3.34 -3 2.68 -3 2 C-2.01 1.34 -1.02 0.68 0 0 Z " fill="#B2CAE9" transform="translate(292,162)"/>
<path d="M0 0 C0.99 0 1.98 0 3 0 C3.66 0.99 4.32 1.98 5 3 C10.34425837 4.78141946 15.54780241 4.06384343 21 3 C18.17057942 5.82942058 15.60394416 6.18448437 11.75 6.3125 C6.80942937 6.28824188 4.0380418 4.74930505 0 2 C0 1.34 0 0.68 0 0 Z " fill="#C5D6ED" transform="translate(89,408)"/>
<path d="M0 0 C0.99 0.33 1.98 0.66 3 1 C1.71937515 2.7074998 0.38232443 4.37373596 -1 6 C-1.66 6 -2.32 6 -3 6 C-3 6.66 -3 7.32 -3 8 C-3.66 8 -4.32 8 -5 8 C-5 8.66 -5 9.32 -5 10 C-5.66 10 -6.32 10 -7 10 C-6.52727227 5.74545047 -4.03562624 3.80795427 -1 1 C-0.67 0.67 -0.34 0.34 0 0 Z " fill="#BDD2E9" transform="translate(171,354)"/>
<path d="M0 0 C3.84938867 3.59276276 5.91873633 5.88714467 6.125 11.25 C6.08375 12.1575 6.0425 13.065 6 14 C2.59801074 9.95001278 0 5.36373351 0 0 Z " fill="#C0D2EC" transform="translate(61,348)"/>
<path d="M0 0 C1.32 0.33 2.64 0.66 4 1 C4.33 2.32 4.66 3.64 5 5 C6.32 5 7.64 5 9 5 C9 6.65 9 8.3 9 10 C7.86800647 9.0919838 6.74467637 8.17316174 5.625 7.25 C4.99851562 6.73953125 4.37203125 6.2290625 3.7265625 5.703125 C1.91687682 3.91800519 0.99882545 2.32050356 0 0 Z " fill="#B7D2EC" transform="translate(314,328)"/>
<path d="M0 0 C1.32 0.66 2.64 1.32 4 2 C2.88121617 3.17262904 1.75476949 4.33795138 0.625 5.5 C-0.00148437 6.1496875 -0.62796875 6.799375 -1.2734375 7.46875 C-3 9 -3 9 -5 9 C-5 7.68 -5 6.36 -5 5 C-3.35 4.34 -1.7 3.68 0 3 C0 2.01 0 1.02 0 0 Z " fill="#BDD1F0" transform="translate(137,385)"/>
<path d="M0 0 C1 2 1 2 1 6 C4.96 6.99 4.96 6.99 9 8 C7.375 9.125 7.375 9.125 5 10 C1.75 9.125 1.75 9.125 -1 8 C-1.04241723 5.66705225 -1.04092937 3.33297433 -1 1 C-0.67 0.67 -0.34 0.34 0 0 Z " fill="#C0D8F2" transform="translate(432,276)"/>
<path d="M0 0 C4.62 0.99 9.24 1.98 14 3 C14 3.33 14 3.66 14 4 C12.22992286 4.08114106 10.45877902 4.13925505 8.6875 4.1875 C7.70136719 4.22230469 6.71523438 4.25710938 5.69921875 4.29296875 C3 4 3 4 1.14453125 2.55078125 C0 1 0 1 0 0 Z " fill="#AAC1E0" transform="translate(402,409)"/>
<path d="M0 0 C0.33 0.66 0.66 1.32 1 2 C0.22265625 4.1640625 0.22265625 4.1640625 -0.9375 6.625 C-1.31777344 7.44226563 -1.69804688 8.25953125 -2.08984375 9.1015625 C-2.39019531 9.72804687 -2.69054687 10.35453125 -3 11 C-3.99 11 -4.98 11 -6 11 C-4.54955729 6.89041233 -2.48889248 3.56741255 0 0 Z " fill="#C5D9F0" transform="translate(103,140)"/>
<path d="M0 0 C1.125 1.6875 1.125 1.6875 2 4 C1.00449408 7.80102261 0.34152484 8.77231678 -3 11 C-3.33 10.01 -3.66 9.02 -4 8 C-3.525625 7.608125 -3.05125 7.21625 -2.5625 6.8125 C-0.64820367 4.59191626 -0.38733012 2.86624291 0 0 Z " fill="#B3CBEA" transform="translate(427,397)"/>
<path d="M0 0 C1.32 0.33 2.64 0.66 4 1 C0.04 4.465 0.04 4.465 -4 8 C-4.66 7.67 -5.32 7.34 -6 7 C-4.02 4.69 -2.04 2.38 0 0 Z " fill="#A0C0E7" transform="translate(195,304)"/>
<path d="M0 0 C1.79240663 0.11389875 3.58394835 0.24147687 5.375 0.375 C6.87160156 0.47941406 6.87160156 0.47941406 8.3984375 0.5859375 C11 1 11 1 13 3 C11.20906809 3.08086147 9.41710372 3.13912702 7.625 3.1875 C6.12839844 3.23970703 6.12839844 3.23970703 4.6015625 3.29296875 C3.74304688 3.19628906 2.88453125 3.09960938 2 3 C1.34 2.01 0.68 1.02 0 0 Z " fill="#B1C9EB" transform="translate(141,122)"/>
<path d="M0 0 C1.28497537 3.85492611 0.4052209 5.40346836 -0.9375 9.1875 C-1.31777344 10.27417969 -1.69804687 11.36085938 -2.08984375 12.48046875 C-2.39019531 13.31191406 -2.69054687 14.14335937 -3 15 C-3.33 15 -3.66 15 -4 15 C-4 12.36 -4 9.72 -4 7 C-3.34 7 -2.68 7 -2 7 C-1.855625 6.21625 -1.71125 5.4325 -1.5625 4.625 C-1 2 -1 2 0 0 Z " fill="#B9D3ED" transform="translate(462,318)"/>
<path d="M0 0 C0.33 0 0.66 0 1 0 C1.21755666 5.4389165 1.10428384 9.87080814 -1 15 C-1.33 15 -1.66 15 -2 15 C-2 12.36 -2 9.72 -2 7 C-1.34 7 -0.68 7 0 7 C0 4.69 0 2.38 0 0 Z " fill="#9FBAE0" transform="translate(436,249)"/>
<path d="M0 0 C-2.25 2.0625 -2.25 2.0625 -5 4 C-7.3125 3.75 -7.3125 3.75 -9 3 C-7 0 -7 0 -4.5 -0.75 C-2 -1 -2 -1 0 0 Z " fill="#EEDEF0" transform="translate(280,194)"/>
<path d="M0 0 C0 0.99 0 1.98 0 3 C-1.32 3 -2.64 3 -4 3 C-4.268125 3.639375 -4.53625 4.27875 -4.8125 4.9375 C-6 7 -6 7 -9 8 C-7.47364599 4.11473526 -4.49771687 0 0 0 Z " fill="#A0BCE0" transform="translate(80,174)"/>
<path d="M0 0 C3 1 3 1 3.984375 2.7421875 C4.23703125 3.44601562 4.4896875 4.14984375 4.75 4.875 C5.01296875 5.57367188 5.2759375 6.27234375 5.546875 6.9921875 C6 9 6 9 5 12 C4.16180842 10.37750059 3.3295884 8.75191503 2.5 7.125 C2.0359375 6.22007812 1.571875 5.31515625 1.09375 4.3828125 C0 2 0 2 0 0 Z " fill="#B8CCEB" transform="translate(74,380)"/>
<path d="M0 0 C0.66 0.33 1.32 0.66 2 1 C0.83709195 4.48872415 -0.13967609 5.09976864 -3.0625 7.1875 C-3.79597656 7.71730469 -4.52945313 8.24710937 -5.28515625 8.79296875 C-5.85105469 9.19128906 -6.41695312 9.58960938 -7 10 C-7.33 9.34 -7.66 8.68 -8 8 C-7.50628906 7.59007812 -7.01257813 7.18015625 -6.50390625 6.7578125 C-5.86324219 6.21898437 -5.22257813 5.68015625 -4.5625 5.125 C-3.92441406 4.59132813 -3.28632813 4.05765625 -2.62890625 3.5078125 C-0.89194996 2.0777243 -0.89194996 2.0777243 0 0 Z " fill="#A6C3E9" transform="translate(182,318)"/>
<path d="M0 0 C-0.56371414 3.26954202 -1.49962266 4.82575883 -4 7 C-4.66 5.35 -5.32 3.7 -6 2 C-3 0 -3 0 0 0 Z " fill="#C2DFFC" transform="translate(224,269)"/>
<path d="M0 0 C0.33 0.66 0.66 1.32 1 2 C-1.48952921 4.66735273 -3.63408134 6.55746343 -7 8 C-5.50902342 4.2047869 -3.24299151 2.38957269 0 0 Z " fill="#A0C1E7" transform="translate(121,378)"/>
<path d="M0 0 C0.66 0.33 1.32 0.66 2 1 C-0.31 3.64 -2.62 6.28 -5 9 C-5.33 7.68 -5.66 6.36 -6 5 C-5.01 5 -4.02 5 -3 5 C-3 4.01 -3 3.02 -3 2 C-2.01 1.34 -1.02 0.68 0 0 Z " fill="#C0D1ED" transform="translate(203,322)"/>
<path d="M0 0 C-5.75 4 -5.75 4 -8 4 C-7.6875 2.0625 -7.6875 2.0625 -7 0 C-3.86650268 -1.04449911 -3.01031744 -0.93423645 0 0 Z " fill="#B7CCEB" transform="translate(118,407)"/>
<path d="M0 0 C2.1875 0.3125 2.1875 0.3125 4 1 C2.35 2.65 0.7 4.3 -1 6 C-1.66 5.01 -2.32 4.02 -3 3 C-1.75 1.4375 -1.75 1.4375 0 0 Z " fill="#B1CBE9" transform="translate(143,380)"/>
<path d="M0 0 C1.98 0.99 1.98 0.99 4 2 C4 3.65 4 5.3 4 7 C2 5.75 2 5.75 0 4 C0 2.68 0 1.36 0 0 Z " fill="#C9E4FE" transform="translate(290,269)"/>
<path d="M0 0 C0.66 0.33 1.32 0.66 2 1 C1.4375 2.9375 1.4375 2.9375 0 5 C-3.625 5.75 -3.625 5.75 -7 6 C-4.74259377 3.66475218 -2.7194239 1.81294927 0 0 Z " fill="#CADFF2" transform="translate(317,145)"/>
<path d="M0 0 C2.79872437 2.52788007 4.45773019 4.20411134 5 8 C3.68 7.67 2.36 7.34 1 7 C0.67 4.69 0.34 2.38 0 0 Z " fill="#BED1ED" transform="translate(411,143)"/>
<path d="M0 0 C1.48199902 0.44909061 2.96055236 0.90956564 4.4375 1.375 C5.26121094 1.63023437 6.08492187 1.88546875 6.93359375 2.1484375 C9 3 9 3 10 5 C3.9453125 4.609375 3.9453125 4.609375 2 4 C0.7421875 1.953125 0.7421875 1.953125 0 0 Z " fill="#C4D6EE" transform="translate(164,129)"/>
<path d="M0 0 C4.61691161 0.52464905 6.09987886 1.07490914 10 4 C6.37 3.34 2.74 2.68 -1 2 C-0.67 1.34 -0.34 0.68 0 0 Z " fill="#C3D8EF" transform="translate(154,125)"/>
<path d="M0 0 C0.99 0.33 1.98 0.66 3 1 C1.02 3.31 -0.96 5.62 -3 8 C-3.33 7.34 -3.66 6.68 -4 6 C-3.34 5.01 -2.68 4.02 -2 3 C-1.34 3 -0.68 3 0 3 C0 2.01 0 1.02 0 0 Z " fill="#B5D0ED" transform="translate(153,371)"/>
<path d="M0 0 C0.33 0.66 0.66 1.32 1 2 C0.06421005 4.35981813 -0.93347808 6.69631264 -2 9 C-2.33 9 -2.66 9 -3 9 C-3.36923077 3.46153846 -3.36923077 3.46153846 -1.5 1.125 C-1.005 0.75375 -0.51 0.3825 0 0 Z " fill="#B5CBE9" transform="translate(442,371)"/>
<path d="M0 0 C0.66 0 1.32 0 2 0 C1.25 5.75 1.25 5.75 -1 8 C-1.625 5.125 -1.625 5.125 -2 2 C-1.34 1.34 -0.68 0.68 0 0 Z " fill="#A1BCE1" transform="translate(461,314)"/>
<path d="M0 0 C0.33 0.66 0.66 1.32 1 2 C-1.38957269 5.24299151 -3.2047869 7.50902342 -7 9 C-6.67 8.01 -6.34 7.02 -6 6 C-5.34 6 -4.68 6 -4 6 C-3.67 5.01 -3.34 4.02 -3 3 C-2.34 3 -1.68 3 -1 3 C-0.67 2.01 -0.34 1.02 0 0 Z " fill="#A9C5EB" transform="translate(212,285)"/>
<path d="M0 0 C0.66 0 1.32 0 2 0 C2.1875 2.8125 2.1875 2.8125 2 6 C1.01 6.99 0.02 7.98 -1 9 C-0.67 6.03 -0.34 3.06 0 0 Z " fill="#B4C9E7" transform="translate(439,236)"/>
<path d="M0 0 C-0.33 0.66 -0.66 1.32 -1 2 C-3.9375 2.75 -3.9375 2.75 -7 3 C-7.66 2.34 -8.32 1.68 -9 1 C-6.04335481 -0.4783226 -3.25770263 -0.06032783 0 0 Z " fill="#B0C3EA" transform="translate(369,123)"/>
<path d="M0 0 C6.64615385 1.47692308 6.64615385 1.47692308 8.4375 4.125 C8.7159375 5.053125 8.7159375 5.053125 9 6 C5.88802644 4.50164236 2.91164984 2.86022073 0 1 C0 0.67 0 0.34 0 0 Z " fill="#AAC7EB" transform="translate(371,325)"/>
</svg>
