<?xml version="1.0" encoding="UTF-8"?>
<svg version="1.1" xmlns="http://www.w3.org/2000/svg" width="1000" height="250">
<path d="M0 0 C0.67756348 0.30454102 1.35512695 0.60908203 2.05322266 0.92285156 C6.13976137 2.76513567 10.20153421 4.60858785 14 7 C14.495 8.485 14.495 8.485 15 10 C16.32 10 17.64 10 19 10 C20.18481853 11.15096658 21.36000578 12.31428445 22.47265625 13.53515625 C24.22180903 15.21273244 26.0482353 16.31496042 28.125 17.5625 C32.9495867 20.63635875 36.45194775 24.51873553 40.10595703 28.86157227 C42.88919348 32.09560007 44.93971909 33.74730267 49 35 C52.19134154 35.27364237 52.19134154 35.27364237 55.61328125 35.1953125 C56.86044922 35.18886719 58.10761719 35.18242188 59.39257812 35.17578125 C60.68615234 35.15902344 61.97972656 35.14226562 63.3125 35.125 C64.62541016 35.11597656 65.93832031 35.10695312 67.29101562 35.09765625 C70.52752913 35.07411797 73.76367149 35.0412352 77 35 C77.2990625 34.22269531 77.598125 33.44539063 77.90625 32.64453125 C78.99061394 30.02269416 80.11911608 28.11599442 82 26 C82.66 26 83.32 26 84 26 C84 25.34 84 24.68 84 24 C86.00236944 22.21977793 88.00626339 20.56988709 90.125 18.9375 C90.75591553 18.44870361 91.38683105 17.95990723 92.03686523 17.45629883 C105.1992058 7.39789857 119.83086351 -3.33664974 137 -3 C137 -3.66 137 -4.32 137 -5 C142.19927328 -6.52569089 147.49994251 -6.22443492 152.875 -6.25 C153.95136719 -6.270625 155.02773437 -6.29125 156.13671875 -6.3125 C161.81927642 -6.34052741 166.15433029 -6.33237804 171 -3 C178.31672665 4.48301589 178.35763953 11.59653837 178.3125 21.5625 C178.31056641 23.31651123 178.31056641 23.31651123 178.30859375 25.10595703 C178.22927021 32.21235462 177.65165873 38.40395032 175.671875 45.23046875 C174.44707803 50.27919578 173.61085448 57.22170896 176 62 C176.31045526 64.59143905 176.50973912 67.18371732 176.71875 69.78515625 C176.7665741 71.97070668 176.7665741 71.97070668 178 73 C178.36914744 77.30326609 178.37212596 81.62055914 178.4375 85.9375 C178.48326172 87.13697266 178.52902344 88.33644531 178.57617188 89.57226562 C178.68108606 97.93347012 177.25882709 103.42130071 172 110 C166.42897796 115.43837866 161.17836461 115.30691335 153.61499023 115.31469727 C139.47871249 115.04921989 126.76296564 109.62328684 114 104 C114.3403125 104.49886719 114.680625 104.99773437 115.03125 105.51171875 C121.44913653 115.01906661 127.64769072 124.36683355 131.84765625 135.0859375 C133.0104828 138.02650905 134.29378924 140.8821691 135.625 143.75 C141.60001902 156.8498051 141.60001902 156.8498051 141 163 C140 164 140 164 137 164.3125 C132.89680481 164.27037274 129.80422268 162.78495856 126.15625 161.0234375 C123.50924578 159.76706956 120.79771749 158.86083615 118 158 C117.34 158.99 116.68 159.98 116 161 C115.34 161 114.68 161 114 161 C113.96261719 161.80824219 113.92523438 162.61648437 113.88671875 163.44921875 C113.78810547 165.05216797 113.78810547 165.05216797 113.6875 166.6875 C113.60048828 168.27111328 113.60048828 168.27111328 113.51171875 169.88671875 C112.95499227 173.27382568 112.04509808 175.26164833 110 178 C106.68027502 179.16190374 105.37151546 179.12383849 102 178 C99.16380267 174.22301526 98.38832169 170.73466993 97.625 166.125 C96.65074785 160.67981863 95.32279207 155.53486348 93.5 150.3125 C90.36319006 141.25271056 87.44213826 132.66960347 88 123 C87.01 122.67 86.02 122.34 85 122 C84.04296875 119.3671875 84.04296875 119.3671875 83.1875 115.875 C80.11066577 104.34274345 75.55522558 93.56700517 70 83 C69.34 81.68 68.68 80.36 68 79 C63.05 79 58.1 79 53 79 C51.8553125 82.0628125 51.8553125 82.0628125 50.6875 85.1875 C48.33878852 91.47189017 48.33878852 91.47189017 46.56176758 94.24194336 C44.70507604 97.52083101 43.65951675 100.86350868 42.625 104.4609375 C42.41439941 105.16973053 42.20379883 105.87852356 41.98681641 106.60879517 C41.31797633 108.86231894 40.65826516 111.11836665 40 113.375 C39.34080446 115.62419066 38.67950918 117.87269229 38.01318359 120.11978149 C37.60028728 121.51316835 37.19148024 122.90777629 36.78759766 124.30380249 C35.82844052 127.54984079 34.75579002 130.67890757 33.40209961 133.77734375 C31.96469005 137.08115816 31.22870537 140.09121502 30.5625 143.625 C29.36745632 149.54990078 27.75460606 155.20236893 25.91015625 160.953125 C24.82976835 164.5698742 24.11411792 168.18912139 23.4375 171.8984375 C22.91510182 174.40781446 22.08304275 176.6791941 21 179 C14.25 179.125 14.25 179.125 12 178 C8.66928257 172.59264093 5 165.36679414 5 159 C-1.46723849 160.83057995 -1.46723849 160.83057995 -7.75 163.1875 C-10.60929722 164.220024 -12.98320442 164.20111971 -16 164 C-16.66 163.67 -17.32 163.34 -18 163 C-19.21252698 148.44967627 -9.67221791 135.39162675 -3 123 C-1.83066644 120.82457185 -0.6619225 118.64883997 0.50463867 116.47192383 C1.1921608 115.19033688 1.88228595 113.91014175 2.57543945 112.6315918 C3.9361324 110.1030572 5.08929558 107.73211326 6 105 C4.989375 105.474375 3.97875 105.94875 2.9375 106.4375 C0.19455997 107.63371117 -1.69117495 108.09215666 -4.75 108.5 C-7.94615365 108.6298043 -7.94615365 108.6298043 -9.19140625 110.39453125 C-12.04725022 112.92963249 -15.55093762 113.38389163 -19.1875 114.1875 C-20.28288086 114.45336914 -20.28288086 114.45336914 -21.40039062 114.72460938 C-29.99872462 116.69712355 -37.79613778 116.5502921 -46 113 C-52.75669603 107.53713938 -55.07389687 101.4069584 -56 93 C-56.65057446 83.01881816 -56.01977002 73.95737509 -53.6796875 64.20703125 C-51.92019909 55.90507731 -53.07696138 48.11735237 -54.5 39.875 C-56.5053663 28.24852561 -59.31002101 11.50922622 -52.7421875 0.984375 C-41.59442123 -13.37348103 -14.1787782 -6.68464093 0 0 Z M-27 29 C-27.4215007 35.63863603 -26.95255526 42.41443279 -26 49 C-25.67 49.33 -25.34 49.66 -25 50 C-24.90105545 51.4346959 -24.87029265 52.87440397 -24.875 54.3125 C-24.87242188 55.09238281 -24.86984375 55.87226562 -24.8671875 56.67578125 C-25 59 -25 59 -25.50219727 60.88842773 C-26.01108882 63.04703638 -26.11442318 64.89614007 -26.09765625 67.109375 C-26.09443359 67.86347656 -26.09121094 68.61757812 -26.08789062 69.39453125 C-26.07951172 70.17183594 -26.07113281 70.94914062 -26.0625 71.75 C-26.05798828 72.54277344 -26.05347656 73.33554688 -26.04882812 74.15234375 C-26.03708565 76.10159508 -26.01915146 78.05080738 -26 80 C-22.37 80 -18.74 80 -15 80 C-15 79.34 -15 78.68 -15 78 C-13.02 78 -11.04 78 -9 78 C-9 77.34 -9 76.68 -9 76 C-8.28972656 75.95101562 -7.57945313 75.90203125 -6.84765625 75.8515625 C-5.92855469 75.77679688 -5.00945313 75.70203125 -4.0625 75.625 C-3.14597656 75.55539063 -2.22945312 75.48578125 -1.28515625 75.4140625 C-0.15400391 75.20910156 -0.15400391 75.20910156 1 75 C1.33 74.34 1.66 73.68 2 73 C4.04235896 72.330901 6.11031549 71.73906877 8.1875 71.1875 C13.71427261 69.62851816 13.71427261 69.62851816 18.3125 66.375 C21.80367697 63.28977384 24.49845953 62.99186485 29 62 C29.495 61.01 29.495 61.01 30 60 C31.82510997 59.21984379 33.68606676 58.52204594 35.5625 57.875 C36.57441406 57.52179688 37.58632812 57.16859375 38.62890625 56.8046875 C39.41136719 56.53914063 40.19382812 56.27359375 41 56 C39.95768203 52.99454327 39.21185054 52.11327902 36.35546875 50.5859375 C35.31003906 50.18632813 34.26460937 49.78671875 33.1875 49.375 C32.14980469 48.97023438 31.11210938 48.56546875 30.04296875 48.1484375 C29.03878906 47.76945312 28.03460938 47.39046875 27 47 C25.33209101 46.33644757 23.66496329 45.67090942 22 45 C22 44.01 22 43.02 22 42 C20.2097939 41.32942113 18.41778511 40.6636531 16.625 40 C15.62726563 39.62875 14.62953125 39.2575 13.6015625 38.875 C11.14151939 37.89373723 11.14151939 37.89373723 9 38 C9 37.34 9 36.68 9 36 C3.94170435 33.97668174 -0.85091281 32.49340335 -6.21484375 31.52734375 C-6.80394531 31.35332031 -7.39304687 31.17929688 -8 31 C-8.33 30.34 -8.66 29.68 -9 29 C-11.64 29 -14.28 29 -17 29 C-17 28.34 -17 27.68 -17 27 C-22.32170494 26.70437633 -22.32170494 26.70437633 -27 29 Z M120.86328125 32.46875 C119.4414959 33.48112072 118.04933386 34.53754157 116.703125 35.6484375 C114.08998522 37.72216769 111.20162309 38.22923889 108 39 C103.1988485 40.48883246 103.1988485 40.48883246 100 44 C97.71484375 45.0703125 97.71484375 45.0703125 94.9375 46.125 C94.01839844 46.47820312 93.09929687 46.83140625 92.15234375 47.1953125 C91.44207031 47.46085937 90.73179687 47.72640625 90 48 C90 48.99 90 49.98 90 51 C86.04 51.495 86.04 51.495 82 52 C82 52.66 82 53.32 82 54 C81.34 54.33 80.68 54.66 80 55 C90.8913526 61.06267411 101.9822758 66.4621373 113.4375 71.375 C114.59668945 71.87418945 115.75587891 72.37337891 116.95019531 72.88769531 C131.46529061 79.40447934 131.46529061 79.40447934 147 81 C148.1482685 78.703463 148.11561175 77.41686833 148.09765625 74.8671875 C148.09443359 74.06152344 148.09121094 73.25585938 148.08789062 72.42578125 C148.07951172 71.58402344 148.07113281 70.74226563 148.0625 69.875 C148.05798828 69.02550781 148.05347656 68.17601562 148.04882812 67.30078125 C148.03702874 65.20049091 148.01909306 63.1002367 148 61 C147.34 60.67 146.68 60.34 146 60 C144.59011092 54.46889667 145.29193188 51.89535391 148 47 C149.53287162 41.14721744 149.08747796 35.00681969 149 29 C140.85439108 26.51219576 128.43555585 28.92307721 120.86328125 32.46875 Z " fill="#F8D53C" transform="translate(68,58)"/>
<path d="M0 0 C1.28132812 -0.020625 2.56265625 -0.04125 3.8828125 -0.0625 C13.10394777 -0.10029154 20.66813918 0.98326626 28.875 5.25 C29.205 4.26 29.535 3.27 29.875 2.25 C34.27491956 0.05004022 40.21452421 1.02290074 45.10571289 1.00976562 C47.30067733 1.00005232 49.49470822 0.96902591 51.68945312 0.9375 C53.08332777 0.93097052 54.47720911 0.92571983 55.87109375 0.921875 C57.77652954 0.90785645 57.77652954 0.90785645 59.72045898 0.89355469 C62.875 1.25 62.875 1.25 64.54834938 2.45497036 C66.32051544 4.85280635 66.25227486 6.35826768 66.25595093 9.32691956 C66.2644104 10.37677536 66.27286987 11.42663116 66.28158569 12.50830078 C66.275513 13.65999756 66.26944031 14.81169434 66.26318359 15.99829102 C66.26844055 17.21161606 66.27369751 18.4249411 66.27911377 19.67503357 C66.29007042 23.00619586 66.2874784 26.33680051 66.27797651 29.6679318 C66.27037795 33.15997137 66.27742718 36.65198719 66.28213501 40.14402771 C66.28759707 46.01606514 66.28039451 51.8879895 66.26611328 57.76000977 C66.24983898 64.52926594 66.25503517 71.29825029 66.2715925 78.0674997 C66.28525832 83.88934785 66.28710067 89.71111467 66.27927649 95.53297371 C66.27462097 99.00526396 66.27391508 102.47742707 66.28388596 105.94970894 C66.29425376 109.83189344 66.27983546 113.7137805 66.26318359 117.59594727 C66.26925629 118.73347443 66.27532898 119.87100159 66.28158569 121.04299927 C66.15204506 137.4217932 59.22100004 147.8651438 47.875 159.25 C35.30155684 170.675867 19.25145936 173.77996335 2.7800293 173.53125 C0.65200672 173.49946994 -1.47527683 173.4902038 -3.60351562 173.484375 C-13.96056119 173.41443881 -13.96056119 173.41443881 -15.125 172.25 C-16.85222728 172.02615618 -18.58196007 171.82160031 -20.3125 171.625 C-30.51415963 169.98349339 -39.96654703 165.150216 -47.3671875 157.92578125 C-49.09938458 156.19181294 -49.09938458 156.19181294 -51.1953125 154.79296875 C-53.17785018 153.3818684 -54.69032791 152.21807582 -56.125 150.25 C-56.73161434 145.43078605 -55.39835356 141.4542773 -53.125 137.25 C-52.465 137.25 -51.805 137.25 -51.125 137.25 C-51.125 136.59 -51.125 135.93 -51.125 135.25 C-49.14239574 133.56267723 -47.1417658 131.89633943 -45.125 130.25 C-44.63 129.26 -44.63 129.26 -44.125 128.25 C-43.465 128.25 -42.805 128.25 -42.125 128.25 C-41.63 126.765 -41.63 126.765 -41.125 125.25 C-38.10412336 122.14027405 -36.70365299 121.28794446 -32.3125 121 C-31.260625 121.0825 -30.20875 121.165 -29.125 121.25 C-28.795 122.57 -28.465 123.89 -28.125 125.25 C-27.55523438 125.36472656 -26.98546875 125.47945313 -26.3984375 125.59765625 C-23.89712474 126.31538689 -21.98733774 127.36472313 -19.75 128.6875 C-16.28720215 130.66787695 -12.98411429 132.16153187 -9.125 133.25 C-9.125 133.91 -9.125 134.57 -9.125 135.25 C3.60456488 134.92409302 3.60456488 134.92409302 15.89453125 131.87109375 C17.875 131.25 17.875 131.25 21.875 131.25 C22.143125 130.569375 22.41125 129.88875 22.6875 129.1875 C24.03553306 125.85289191 25.45036298 122.55256763 26.875 119.25 C24.235 119.58 21.595 119.91 18.875 120.25 C18.38 121.735 18.38 121.735 17.875 123.25 C13.98315548 123.35059445 10.09183746 123.42225841 6.19897461 123.46972656 C4.24110224 123.49919327 2.28358901 123.55007758 0.32617188 123.6015625 C-16.3321442 123.77111279 -30.67924549 118.2370281 -42.7734375 106.71875 C-56.98777041 91.79606163 -59.69719111 75.12919789 -59.40234375 55.33984375 C-58.78829945 39.01115326 -51.68854663 25.51500412 -40.125 14.25 C-28.36671928 3.45308815 -15.47020537 0.06114706 0 0 Z M-15.5 44.9375 C-19.76070008 53.62277325 -21.23565187 65.30196223 -18.40234375 74.62890625 C-15.77186337 79.55972574 -11.97531869 82.66424197 -6.70703125 84.33203125 C5.85272812 87.02582247 5.85272812 87.02582247 17.82421875 83.6015625 C23.02150326 80.05518013 26.5976781 77.26389861 28.875 71.25 C29.75635521 63.39556977 30.03574515 54.26298741 25.875 47.25 C21.73594831 42.40506353 16.21781625 38.89624619 9.84716797 37.94824219 C7.70097573 37.81307263 5.58764736 37.78219252 3.4375 37.8125 C2.68831299 37.82007324 1.93912598 37.82764648 1.16723633 37.83544922 C-6.00656703 38.04991972 -10.551732 39.33814411 -15.5 44.9375 Z " fill="#F7D53C" transform="translate(658.125,54.75)"/>
<path d="M0 0 C1.29550781 0.00322266 2.59101563 0.00644531 3.92578125 0.00976562 C5.28906317 0.01812027 6.65234442 0.02658521 8.015625 0.03515625 C9.39452965 0.04017457 10.77343604 0.0447369 12.15234375 0.04882812 C15.52348159 0.06061532 18.89453128 0.0770699 22.265625 0.09765625 C22.760625 1.58265625 22.760625 1.58265625 23.265625 3.09765625 C23.8225 3.05125 24.379375 3.00484375 24.953125 2.95703125 C35.82296637 2.44291713 42.5546259 8.45736431 50.2734375 15.296875 C53.83981661 18.56513914 56.77995528 21.93598122 59.265625 26.09765625 C59.71292969 26.84273437 60.16023438 27.5878125 60.62109375 28.35546875 C66.89300531 39.79572971 67.75372151 51.8362688 67.640625 64.66015625 C67.65222656 65.97951172 67.66382813 67.29886719 67.67578125 68.65820312 C67.63483008 82.43827023 65.31261563 96.03565258 55.171875 106.1953125 C53.81112236 107.35042901 52.43021032 108.48234913 51.02734375 109.5859375 C49.0134587 111.15742265 49.0134587 111.15742265 47.390625 114.16015625 C41.90247895 121.74671109 31.02233128 125.67551633 22.265625 128.09765625 C17.29600924 128.78792022 12.30243727 128.73990663 7.2956543 128.63964844 C5.04194639 128.59697115 2.79116195 128.59866406 0.53710938 128.60546875 C-7.469249 128.54718933 -7.469249 128.54718933 -10.734375 128.09765625 C-11.394375 127.10765625 -12.054375 126.11765625 -12.734375 125.09765625 C-14.68270435 124.09597094 -14.68270435 124.09597094 -16.859375 123.41015625 C-17.58382812 123.15878906 -18.30828125 122.90742188 -19.0546875 122.6484375 C-19.60898437 122.46667969 -20.16328125 122.28492188 -20.734375 122.09765625 C-20.75419434 123.30824707 -20.77401367 124.51883789 -20.79443359 125.76611328 C-20.87070836 130.27266665 -20.9593918 134.77890634 -21.05175781 139.28515625 C-21.08995733 141.23268423 -21.12482575 143.1802806 -21.15625 145.12792969 C-21.20209696 147.93319071 -21.26005866 150.73798464 -21.3203125 153.54296875 C-21.33763931 154.84175461 -21.33763931 154.84175461 -21.35531616 156.16677856 C-21.46877276 160.85127667 -21.94800731 164.69128261 -23.734375 169.09765625 C-27.92144347 169.29575701 -32.10903155 169.47924141 -36.296875 169.66015625 C-37.47830078 169.71623047 -38.65972656 169.77230469 -39.87695312 169.83007812 C-54.70142663 170.45295516 -54.70142663 170.45295516 -59.734375 167.09765625 C-60.12192917 164.52406406 -60.12192917 164.52406406 -60.13983154 161.19862366 C-60.1608065 159.31253891 -60.1608065 159.31253891 -60.1822052 157.38835144 C-60.18262597 155.98684698 -60.18275336 154.58534241 -60.18261719 153.18383789 C-60.19326661 151.71371504 -60.20521485 150.24360111 -60.21836853 148.77349854 C-60.25033163 144.77093281 -60.26363389 140.76849613 -60.27341747 136.76582265 C-60.28651008 132.57351149 -60.31565749 128.38131082 -60.34283447 124.18907166 C-60.3862008 117.13835882 -60.41827795 110.08766735 -60.44287109 103.03686523 C-60.47129176 94.90492784 -60.51349242 86.7731614 -60.56411052 78.64133364 C-60.61807616 69.97112225 -60.66383159 61.30088381 -60.70614719 52.63060832 C-60.71870475 50.14177986 -60.73255244 47.65296112 -60.74660492 45.1641407 C-60.7682512 41.23339377 -60.78421297 37.30266052 -60.79596138 33.37187195 C-60.80102719 31.93646951 -60.80782682 30.50107187 -60.81657982 29.06568718 C-60.9560404 5.52481636 -60.9560404 5.52481636 -56.734375 1.09765625 C-53.62744141 0.58007812 -53.62744141 0.58007812 -49.8359375 0.56640625 C-48.82797623 0.56066589 -48.82797623 0.56066589 -47.7996521 0.55480957 C-46.3791148 0.55209025 -44.95852745 0.55945323 -43.53808594 0.57617188 C-41.37319944 0.59751993 -39.21165607 0.57641163 -37.046875 0.55078125 C-35.66405522 0.55342584 -34.28123751 0.55855354 -32.8984375 0.56640625 C-31.64498535 0.57091797 -30.3915332 0.57542969 -29.10009766 0.58007812 C-25.21300349 1.17783234 -23.53909914 2.4097122 -20.734375 5.09765625 C-20.05890625 4.82050781 -19.3834375 4.54335938 -18.6875 4.2578125 C-17.79546875 3.89558594 -16.9034375 3.53335938 -15.984375 3.16015625 C-15.10265625 2.80050781 -14.2209375 2.44085938 -13.3125 2.0703125 C-8.72096974 0.33805336 -4.93585003 -0.02164847 0 0 Z M-5.734375 37.09765625 C-5.734375 37.75765625 -5.734375 38.41765625 -5.734375 39.09765625 C-6.415 39.32453125 -7.095625 39.55140625 -7.796875 39.78515625 C-10.15950179 40.84079801 -12.19750829 41.88981128 -14.359375 43.28515625 C-14.92914063 43.64996094 -15.49890625 44.01476562 -16.0859375 44.390625 C-20.56110784 49.02486538 -21.1003744 54.33306635 -21.09570312 60.48046875 C-21.07958984 61.34414062 -21.06347656 62.2078125 -21.046875 63.09765625 C-21.05009766 63.96132812 -21.05332031 64.825 -21.05664062 65.71484375 C-21.02559118 74.70026877 -21.02559118 74.70026877 -16.67578125 82.2421875 C-15.89074219 82.79261719 -15.10570312 83.34304687 -14.296875 83.91015625 C-13.51441406 84.47347656 -12.73195313 85.03679687 -11.92578125 85.6171875 C-6.2376315 89.45998385 -2.74223332 89.46387981 4.015625 89.47265625 C4.99273437 89.49714844 5.96984375 89.52164063 6.9765625 89.546875 C13.30829983 89.57247502 17.14635572 88.90515482 22.265625 85.09765625 C28.95042119 77.81627642 29.87195555 68.17707248 29.69921875 58.70703125 C28.79127863 51.14904326 25.43026711 44.37395812 19.640625 39.34765625 C12.39180399 35.05112803 2.37321582 36.64171387 -5.734375 37.09765625 Z " fill="#F8D43B" transform="translate(347.734375,54.90234375)"/>
<path d="M0 0 C1.21236328 -0.020625 2.42472656 -0.04125 3.67382812 -0.0625 C11.69625036 -0.09691254 18.76379983 0.90356245 26.4375 3.25 C26.9325 5.23 26.9325 5.23 27.4375 7.25 C28.47261719 7.31445312 29.50773438 7.37890625 30.57421875 7.4453125 C35.1535687 8.39915081 36.91415783 9.90579567 40.25 13.125 C41.65185547 14.45144531 41.65185547 14.45144531 43.08203125 15.8046875 C47.4375 20.32628524 47.4375 20.32628524 47.4375 24.25 C48.4275 24.25 49.4175 24.25 50.4375 24.25 C57.32588269 36.55068337 57.32588269 36.55068337 56.4375 44.25 C57.9225 44.745 57.9225 44.745 59.4375 45.25 C59.56314489 50.22631087 59.65277732 55.20165579 59.7121582 60.17919922 C59.73696682 61.86458457 59.77082576 63.54986638 59.81469727 65.23486328 C60.28043708 83.61240825 56.9137274 97.70589704 44.21484375 111.69921875 C40.50945844 115.55255048 40.50945844 115.55255048 38.4375 117.25 C37.7775 117.25 37.1175 117.25 36.4375 117.25 C36.4375 117.91 36.4375 118.57 36.4375 119.25 C34.2316576 120.38011652 32.02304973 121.50415788 29.8125 122.625 C29.19503906 122.94210938 28.57757812 123.25921875 27.94140625 123.5859375 C27.32910156 123.8953125 26.71679688 124.2046875 26.0859375 124.5234375 C25.25328369 124.94761963 25.25328369 124.94761963 24.40380859 125.38037109 C17.46487077 128.44921844 11.27566493 128.62242703 3.77172852 128.62060547 C1.77278218 128.62495048 -0.22600673 128.66189841 -2.22460938 128.69921875 C-11.30653404 128.72642372 -18.44783369 127.30733316 -26.5625 123.25 C-27.41248272 133.85002718 -27.84392043 144.42024135 -28.11474609 155.05078125 C-28.16627548 157.0287533 -28.22366331 159.00657004 -28.28125 160.984375 C-28.31154297 162.14163086 -28.34183594 163.29888672 -28.37304688 164.49121094 C-28.5625 167.25 -28.5625 167.25 -29.5625 169.25 C-34.38630802 169.2746519 -39.21007967 169.29283693 -44.03393555 169.30493164 C-45.67619464 169.30997174 -47.31844923 169.31680378 -48.96069336 169.32543945 C-51.31625479 169.33751926 -53.67175709 169.34323139 -56.02734375 169.34765625 C-56.76589096 169.35281754 -57.50443817 169.35797882 -58.2653656 169.36329651 C-60.03148088 169.3634925 -61.79747146 169.31194719 -63.5625 169.25 C-65.41930921 167.39319079 -64.68871853 164.31416803 -64.68948364 161.83447266 C-64.69104363 161.15645411 -64.69260362 160.47843555 -64.69421089 159.77987099 C-64.69822291 157.49124652 -64.69503048 155.20268754 -64.69189453 152.9140625 C-64.69324848 151.28008993 -64.69502838 149.64611767 -64.69720459 148.012146 C-64.70177965 143.56185921 -64.69998907 139.1115955 -64.6968255 134.66130829 C-64.69430228 130.01460201 -64.69663934 125.36789776 -64.69821167 120.72119141 C-64.70003348 112.91633752 -64.69762677 105.11149308 -64.69287109 97.30664062 C-64.68742845 88.26972763 -64.6891911 79.2328372 -64.6946975 70.19592476 C-64.69922832 62.45157744 -64.69987933 54.70723693 -64.69725883 46.96288872 C-64.69569588 42.33115138 -64.69550277 37.69942466 -64.69879532 33.06768799 C-64.70167358 28.71426583 -64.69969918 24.3608729 -64.69390106 20.00745392 C-64.69257322 18.40499164 -64.69296798 16.80252693 -64.69516373 15.20006561 C-64.6978743 13.02185243 -64.69449528 10.84373438 -64.68948364 8.66552734 C-64.68910662 7.44360687 -64.68872959 6.2216864 -64.68834114 4.96273804 C-64.5625 2.25 -64.5625 2.25 -63.5625 1.25 C-59.03835674 1.03118475 -54.50888235 1.06420934 -49.97998047 1.06469727 C-47.70391003 1.06251573 -45.42832801 1.04437771 -43.15234375 1.02539062 C-41.70833499 1.02245577 -40.26432393 1.02047159 -38.8203125 1.01953125 C-37.5017627 1.01542236 -36.18321289 1.01131348 -34.82470703 1.00708008 C-31.5625 1.25 -31.5625 1.25 -28.5625 3.25 C-28.5625 3.91 -28.5625 4.57 -28.5625 5.25 C-27.89863281 4.97285156 -27.23476563 4.69570313 -26.55078125 4.41015625 C-25.66777344 4.04792969 -24.78476562 3.68570313 -23.875 3.3125 C-23.00488281 2.95285156 -22.13476562 2.59320313 -21.23828125 2.22265625 C-14.29731374 -0.30041077 -7.29760322 0.03035924 0 0 Z M-21.5625 44.25 C-21.5625 44.91 -21.5625 45.57 -21.5625 46.25 C-22.2225 46.25 -22.8825 46.25 -23.5625 46.25 C-27.36426084 52.6925049 -28.30511559 57.74816186 -28.25 65.1875 C-28.24492432 66.16517334 -28.23984863 67.14284668 -28.23461914 68.15014648 C-28.0270944 74.56293042 -27.33978467 79.04744651 -22.5703125 83.69140625 C-21.57644531 84.46291016 -21.57644531 84.46291016 -20.5625 85.25 C-19.94117188 85.77464844 -19.31984375 86.29929688 -18.6796875 86.83984375 C-12.14091514 91.94914423 -5.58115867 91.82420043 2.4375 91.25 C8.76115227 89.87735093 14.5177094 87.73967278 18.54296875 82.51953125 C21.66607232 76.86542313 21.01520279 70.46523824 20.9375 64.1875 C20.95296875 62.93388672 20.9684375 61.68027344 20.984375 60.38867188 C21.02986194 51.47356373 21.02986194 51.47356373 16.4375 44.25 C14.02797977 43.00285597 14.02797977 43.00285597 11.4375 42.25 C10.77363281 41.74855469 10.10976563 41.24710938 9.42578125 40.73046875 C5.01567194 38.54559107 0.91946659 38.73650843 -3.9375 38.75 C-4.85789062 38.72164062 -5.77828125 38.69328125 -6.7265625 38.6640625 C-13.28042227 38.64533719 -16.69579177 39.79890598 -21.5625 44.25 Z " fill="#F7D439" transform="translate(925.5625,54.75)"/>
<path d="M0 0 C1.84464844 -0.04350586 1.84464844 -0.04350586 3.7265625 -0.08789062 C18.02067707 -0.18652305 28.49507435 4.73039004 39.37890625 13.89453125 C44.5069343 19.18322859 46.92052457 26.54526175 49.5 33.3125 C49.85206512 34.20526642 50.20413025 35.09803284 50.56686401 36.01785278 C51.66002498 39.87750431 51.76587616 43.45604143 51.72705078 47.42919922 C51.72734283 48.22011459 51.72763489 49.01102997 51.72793579 49.82591248 C51.72654973 52.4231183 51.71102287 55.02003219 51.6953125 57.6171875 C51.69157979 59.42465051 51.68873404 61.23211554 51.68673706 63.0395813 C51.6791209 67.78411499 51.6594898 72.52852517 51.6373291 77.27301025 C51.61682715 82.11948984 51.60772605 86.96598949 51.59765625 91.8125 C51.57624196 101.3125541 51.54213044 110.81251676 51.5 120.3125 C46.40970056 120.3865421 41.31971308 120.44105008 36.22900391 120.47729492 C34.49652651 120.4924009 32.76408746 120.51288694 31.03173828 120.53881836 C28.54450022 120.57512321 26.05776674 120.59220765 23.5703125 120.60546875 C22.79317902 120.62095261 22.01604553 120.63643646 21.21536255 120.65238953 C19.03173828 120.65307617 19.03173828 120.65307617 15.5 120.3125 C13.1200032 116.74250481 13.22654075 115.11527967 13.16870117 110.87255859 C13.15104958 109.89872223 13.15104958 109.89872223 13.13304138 108.9052124 C13.10830964 107.49589822 13.08778736 106.08650532 13.07097435 104.67707443 C13.04269519 102.43929046 12.99999135 100.20221604 12.95295715 97.9647522 C12.82085289 91.60327332 12.70682724 85.24168367 12.62182617 78.87939453 C12.56876969 74.9849968 12.49204203 71.0916393 12.40087318 67.19795609 C12.37088937 65.72069175 12.34972856 64.24321882 12.33791161 62.76569748 C12.26058568 50.6672888 12.26058568 50.6672888 6.5 40.3125 C3.07008462 39.16919487 0.3013584 39.10868349 -3.3125 39.0625 C-4.51519531 39.03671875 -5.71789062 39.0109375 -6.95703125 38.984375 C-10.85299948 39.34519234 -13.19021433 40.25947352 -16.5 42.3125 C-23.28589464 51.11582278 -21.63909546 63.37520658 -21.67578125 73.96875 C-21.69894497 76.56250842 -21.7230608 79.15625849 -21.74804688 81.75 C-21.78455097 85.80338863 -21.81433653 89.856614 -21.82592773 93.91015625 C-21.83791125 97.84663974 -21.88142663 101.78249421 -21.92578125 105.71875 C-21.92387283 106.93743774 -21.92196442 108.15612549 -21.91999817 109.41174316 C-21.93648911 110.53721558 -21.95298004 111.66268799 -21.9699707 112.82226562 C-21.97583694 113.81278931 -21.98170319 114.80331299 -21.98774719 115.82385254 C-22.5 118.3125 -22.5 118.3125 -24.38198853 120.11332703 C-29.97792273 123.28162576 -36.70554976 122.49609282 -42.9375 122.5 C-43.96166016 122.51224609 -44.98582031 122.52449219 -46.04101562 122.53710938 C-56.03433782 122.55651388 -56.03433782 122.55651388 -60.5 120.3125 C-61.43655786 117.50282642 -61.64076609 115.72796531 -61.67840576 112.81608582 C-61.69253006 111.89507584 -61.70665436 110.97406586 -61.72120667 110.02514648 C-61.73167526 109.01677734 -61.74214386 108.0084082 -61.75292969 106.96948242 C-61.76764816 105.90578934 -61.78236664 104.84209625 -61.79753113 103.74617004 C-61.84451281 100.22014781 -61.88384117 96.69409825 -61.921875 93.16796875 C-61.93573494 91.96462702 -61.94959488 90.76128529 -61.96387482 89.52147865 C-62.03714895 83.15393366 -62.10470289 76.78635802 -62.16748047 70.41870117 C-62.23340476 63.83775076 -62.31801643 57.25718144 -62.4070549 50.6765089 C-62.47216615 45.61941685 -62.52364152 40.56225171 -62.57138824 35.50496864 C-62.59664131 33.0788322 -62.62700274 30.65274338 -62.66255951 28.22673607 C-62.7109935 24.83235722 -62.74016663 21.43832569 -62.76464844 18.04370117 C-62.78321396 17.04140472 -62.80177948 16.03910828 -62.82090759 15.00643921 C-62.83730693 9.64873192 -62.46979154 5.97561035 -59.5 1.3125 C-54.85526018 1.23833933 -50.21086501 1.18389385 -45.56567383 1.14770508 C-43.98553464 1.13261906 -42.40543731 1.1121475 -40.82543945 1.08618164 C-38.55409415 1.04978874 -36.28330241 1.03277238 -34.01171875 1.01953125 C-32.95219246 0.99630547 -32.95219246 0.99630547 -31.8712616 0.97261047 C-26.89610359 0.97090357 -26.89610359 0.97090357 -24.72583008 2.8425293 C-24.11904419 3.57016479 -24.11904419 3.57016479 -23.5 4.3125 C-20.38006394 4.23707659 -20.38006394 4.23707659 -17.5 3.3125 C-17.17 2.6525 -16.84 1.9925 -16.5 1.3125 C-11.19598084 -0.45550639 -5.55138767 0.04257199 0 0 Z " fill="#F8D53D" transform="translate(540.5,54.6875)"/>
<path d="M0 0 C2.18590685 -0.00218931 4.37131113 -0.02036584 6.55712891 -0.03930664 C7.9464501 -0.04224028 9.33577369 -0.04422527 10.72509766 -0.04516602 C11.98902344 -0.0492749 13.25294922 -0.05338379 14.55517578 -0.05761719 C17.69384766 0.18530273 17.69384766 0.18530273 20.69384766 2.18530273 C21.89131839 6.06831193 21.8239185 9.93669467 21.83569336 13.97583008 C21.83916779 14.63831253 21.84264221 15.30079498 21.84622192 15.98335266 C21.85354534 17.41506496 21.85890881 18.84678837 21.86251259 20.27851486 C21.86971783 22.54926346 21.8854137 24.81980091 21.90385437 27.09048462 C21.95613781 33.54426201 22.00428699 39.99791957 22.01977539 46.4519043 C22.0298857 50.40661907 22.05928152 54.36079486 22.1010952 58.31529617 C22.11336165 59.81665588 22.11853444 61.31809182 22.11629677 62.81949997 C22.10570671 72.24247896 22.66131219 78.01516779 28.54931641 85.56420898 C32.86707566 88.82808893 38.47215883 88.34430666 43.69384766 88.18530273 C47.71110076 87.41459034 50.06841769 86.01920936 52.56884766 82.68530273 C57.15477818 72.49434603 55.83819512 58.89794007 55.90478516 47.91967773 C55.9327984 45.29336883 55.96146227 42.66706679 55.99072266 40.04077148 C56.03331175 35.95893491 56.07032396 31.877151 56.09521484 27.79516602 C56.12010132 23.81561807 56.16845962 19.83650589 56.21728516 15.85717773 C56.22053802 14.62916443 56.22379089 13.40115112 56.22714233 12.13592529 C56.25199203 10.4370517 56.25199203 10.4370517 56.27734375 8.70385742 C56.2854306 7.70763367 56.29351746 6.71140991 56.30184937 5.68499756 C56.69384766 3.18530273 56.69384766 3.18530273 58.01499939 1.36167908 C60.75824672 -0.56052636 63.76395052 -0.18057188 66.98681641 -0.10766602 C68.0458593 -0.10129875 68.0458593 -0.10129875 69.126297 -0.09480286 C71.37837069 -0.0780276 73.62954508 -0.04037969 75.88134766 -0.00219727 C77.40932951 0.01285116 78.93732541 0.0265393 80.46533203 0.03881836 C84.20851638 0.07187185 87.95102961 0.12364442 91.69384766 0.18530273 C94.3955255 4.83358312 95.0720716 8.20766692 95.08203125 13.56079102 C95.08728821 14.27390945 95.09254517 14.98702789 95.09796143 15.72175598 C95.11110418 18.06660238 95.10243844 20.41076254 95.09228516 22.75561523 C95.09430888 24.3998121 95.09722281 26.04400809 95.10098267 27.6882019 C95.10539941 31.13296054 95.09900099 34.57748541 95.08496094 38.0222168 C95.06795025 42.40641691 95.07766241 46.79006266 95.09567833 51.17424202 C95.1066032 54.57178802 95.10302893 57.96920624 95.09529495 61.36675644 C95.09331266 62.98125145 95.09568179 64.59575858 95.10273361 66.21023941 C95.16644126 84.90902981 91.54072426 100.48848431 78.60009766 114.44311523 C76.69384766 116.18530273 76.69384766 116.18530273 74.69384766 116.18530273 C74.69384766 116.84530273 74.69384766 117.50530273 74.69384766 118.18530273 C73.23978516 118.86592773 73.23978516 118.86592773 71.75634766 119.56030273 C68.62305184 120.84316495 68.62305184 120.84316495 67.69384766 123.18530273 C58.39359929 127.27074191 49.21160493 127.80350636 39.19384766 127.68530273 C37.88287109 127.70077148 36.57189453 127.71624023 35.22119141 127.73217773 C25.56896223 127.6938372 14.21352699 127.02381922 6.69384766 120.18530273 C6.69384766 119.52530273 6.69384766 118.86530273 6.69384766 118.18530273 C5.80697266 117.95842773 4.92009766 117.73155273 4.00634766 117.49780273 C-3.0884053 114.68667421 -9.3032091 106.52390404 -12.48193359 99.63842773 C-13.30615234 97.18530273 -13.30615234 97.18530273 -13.80615234 93.43530273 C-14.05365234 91.82655273 -14.05365234 91.82655273 -14.30615234 90.18530273 C-14.96615234 89.85530273 -15.62615234 89.52530273 -16.30615234 89.18530273 C-16.30615234 60.14530273 -16.30615234 31.10530273 -16.30615234 1.18530273 C-11.08390228 -0.55544729 -5.46791821 -0.00061534 0 0 Z " fill="#F7D53E" transform="translate(753.30615234375,55.814697265625)"/>
<path d="M0 0 C1.22126839 0.00848969 1.22126839 0.00848969 2.46720886 0.01715088 C5.05557228 0.03945726 7.64252715 0.08964055 10.23046875 0.140625 C11.99021431 0.16069753 13.74998168 0.17894698 15.50976562 0.1953125 C19.8130388 0.23930293 24.11526535 0.30828873 28.41796875 0.390625 C28.41796875 1.050625 28.41796875 1.710625 28.41796875 2.390625 C29.07796875 2.390625 29.73796875 2.390625 30.41796875 2.390625 C31.29318432 9.08936247 31.52909088 15.57651978 31.43969727 22.32641602 C31.43008972 23.38111588 31.42048218 24.43581573 31.4105835 25.5224762 C31.37782057 28.97990074 31.33740293 32.43718977 31.296875 35.89453125 C31.27255165 38.30305007 31.24870923 40.71157379 31.22532654 43.12010193 C31.16270596 49.43789278 31.09357762 55.75559611 31.02307129 62.07330322 C30.95218814 68.52864622 30.88749101 74.98405092 30.82226562 81.43945312 C30.69353745 94.08991124 30.55814103 106.74028878 30.41796875 119.390625 C27.23574458 120.98173708 23.79848549 120.53246604 20.3046875 120.5234375 C19.0948394 120.52487259 19.0948394 120.52487259 17.86054993 120.52633667 C16.15158002 120.52701786 14.44260753 120.52516782 12.73364258 120.52099609 C10.12640503 120.51566779 7.5193414 120.52093232 4.91210938 120.52734375 C3.2513017 120.52668255 1.59049414 120.52540052 -0.0703125 120.5234375 C-0.8475618 120.52546173 -1.6248111 120.52748596 -2.4256134 120.52957153 C-6.28766055 120.51298451 -9.81617421 120.2124028 -13.58203125 119.390625 C-13.69882155 104.4656779 -13.78699819 89.5407662 -13.84109211 74.61545944 C-13.86687634 67.68537879 -13.90203033 60.75558203 -13.95922852 53.82568359 C-14.01437834 47.14077083 -14.04343437 40.45621425 -14.05641747 33.77106476 C-14.06567237 31.217688 -14.08374455 28.6643278 -14.11068153 26.11107635 C-14.14685777 22.54081517 -14.15198112 18.97178147 -14.1496582 15.40136719 C-14.16763458 14.34041336 -14.18561096 13.27945953 -14.20413208 12.18635559 C-14.15376479 5.05534418 -14.15376479 5.05534418 -11.29431152 1.73083496 C-7.53644759 -0.12602575 -4.09488166 -0.10789647 0 0 Z " fill="#F8D33A" transform="translate(433.58203125,55.609375)"/>
<path d="M0 0 C7.82539926 -0.60195379 14.91536308 2.15994791 21 7 C26.6288723 12.79667066 27.25982182 17.30563019 27.24658203 25.234375 C27.10530878 33.26953292 24.90144008 38.4016268 19.79296875 44.5546875 C15.16458617 48.28562771 9.69944987 48.31427951 4 48.25 C2.97132813 48.26160156 2.97132813 48.26160156 1.921875 48.2734375 C-2.42530835 48.2568452 -5.96113993 47.59030115 -10 46 C-10 45.34 -10 44.68 -10 44 C-10.721875 43.835 -11.44375 43.67 -12.1875 43.5 C-16.51192074 41.19364227 -18.42273233 38.64776825 -20 34 C-21.09787849 26.49335178 -21.56463856 17.17328029 -17.32421875 10.58203125 C-11.29386275 3.37762364 -11.29386275 3.37762364 -6.76953125 2.6328125 C-4.5625 2.625 -4.5625 2.625 -1 3 C-0.67 2.01 -0.34 1.02 0 0 Z " fill="#F8D53C" transform="translate(439,3)"/>
<path d="M0 0 C0.99 0 1.98 0 3 0 C2.67 29.04 2.34 58.08 2 88 C1.34 88 0.68 88 0 88 C0 58.96 0 29.92 0 0 Z " fill="#F2DC6E" transform="translate(737,57)"/>
<path d="M0 0 C0.33 0 0.66 0 1 0 C1.87521557 6.69873747 2.11112213 13.18589478 2.02172852 19.93579102 C2.01212097 20.99049088 2.00251343 22.04519073 1.99261475 23.1318512 C1.95985182 26.58927574 1.91943418 30.04656477 1.87890625 33.50390625 C1.8545829 35.91242507 1.83074048 38.32094879 1.80735779 40.72947693 C1.74473721 47.04726778 1.67560887 53.36497111 1.60510254 59.68267822 C1.53421939 66.13802122 1.46952226 72.59342592 1.40429688 79.04882812 C1.2755687 91.69928624 1.14017228 104.34966378 1 117 C-2.06594594 118.53297297 -5.27111853 118.12131455 -8.6328125 118.09765625 C-9.76056595 118.09553383 -9.76056595 118.09553383 -10.91110229 118.09336853 C-13.3157751 118.08776465 -15.72035527 118.07521157 -18.125 118.0625 C-19.75390491 118.0574855 -21.38281127 118.0529225 -23.01171875 118.04882812 C-27.00784827 118.03779397 -31.00390842 118.02052679 -35 118 C-35 117.67 -35 117.34 -35 117 C-34.07662842 116.98018066 -33.15325684 116.96036133 -32.2019043 116.93994141 C-28.77438826 116.86182261 -25.34731202 116.77513003 -21.92016602 116.68261719 C-20.43717788 116.64434653 -18.95409752 116.60949022 -17.47094727 116.578125 C-15.33836928 116.532432 -13.20642509 116.47444662 -11.07421875 116.4140625 C-9.79119873 116.3826416 -8.50817871 116.3512207 -7.1862793 116.31884766 C-3.84612541 116.23620772 -3.84612541 116.23620772 -1 114 C-0.53810104 111.90107593 -0.53810104 111.90107593 -0.60127258 109.43161011 C-0.58873444 108.46964722 -0.57619629 107.50768433 -0.5632782 106.51657104 C-0.56471329 105.4577774 -0.56614838 104.39898376 -0.56762695 103.30810547 C-0.5574353 102.19590637 -0.54724365 101.08370728 -0.53674316 99.93780518 C-0.50645663 96.24754909 -0.49732319 92.55755188 -0.48828125 88.8671875 C-0.47144621 86.31412889 -0.45329758 83.76107863 -0.43388367 81.20803833 C-0.39112336 75.16614766 -0.36165038 69.12433232 -0.33856028 63.08234608 C-0.31153835 56.20447841 -0.26762512 49.32675133 -0.22227156 42.44898391 C-0.12934554 28.29939888 -0.05770137 14.14976936 0 0 Z " fill="#F4D861" transform="translate(463,58)"/>
<path d="M0 0 C8.57142857 -0.28571429 8.57142857 -0.28571429 12 2 C12 2.33 12 2.66 12 3 C23.55 3 35.1 3 47 3 C43.22372096 6.77627904 38.5454831 6.17202957 33.4609375 6.203125 C32.37783798 6.21167511 32.37783798 6.21167511 31.27285767 6.22039795 C29.75158136 6.22981787 28.23028493 6.23636994 26.70898438 6.24023438 C24.37594694 6.24999604 22.0437705 6.28106814 19.7109375 6.3125 C18.23177606 6.31902521 16.75260833 6.32427757 15.2734375 6.328125 C14.57447357 6.3404718 13.87550964 6.3528186 13.15536499 6.36553955 C11.19287109 6.35644531 11.19287109 6.35644531 8 6 C7.34 5.01 6.68 4.02 6 3 C2.94570927 1.78715124 2.94570927 1.78715124 0 1 C0 0.67 0 0.34 0 0 Z " fill="#F8DB60" transform="translate(329,177)"/>
<path d="M0 0 C0.33 0 0.66 0 1 0 C1.02888146 3.31248187 1.04675799 6.62493167 1.0625 9.9375 C1.07087891 10.88302734 1.07925781 11.82855469 1.08789062 12.80273438 C1.09111328 13.70185547 1.09433594 14.60097656 1.09765625 15.52734375 C1.10289307 16.35999756 1.10812988 17.19265137 1.11352539 18.05053711 C1 20 1 20 0 21 C-6.95123699 21.44134838 -12.45249507 20.29641092 -19 18 C-19 17.34 -19 16.68 -19 16 C-19.969375 15.9175 -20.93875 15.835 -21.9375 15.75 C-26.67119101 15.1000875 -30.73984407 13.07694677 -35 11 C-35 10.34 -35 9.68 -35 9 C-30.60224619 10.43926488 -26.22912703 11.90446451 -21.8984375 13.53515625 C-21.1655249 13.80634277 -20.4326123 14.0775293 -19.67749023 14.35693359 C-18.21217174 14.90025932 -16.75051651 15.45359562 -15.29321289 16.01806641 C-10.31789616 17.84559277 -6.29883851 18.26822017 -1 18 C-1.01160156 16.78441406 -1.02320313 15.56882813 -1.03515625 14.31640625 C-1.04453278 12.73177236 -1.05363313 11.14713682 -1.0625 9.5625 C-1.07087891 8.76005859 -1.07925781 7.95761719 -1.08789062 7.13085938 C-1.0965143 5.08704779 -1.0522815 3.04316098 -1 1 C-0.67 0.67 -0.34 0.34 0 0 Z " fill="#F9E25B" transform="translate(216,120)"/>
<path d="M0 0 C0.66 0.33 1.32 0.66 2 1 C2 10.66666667 2 20.33333333 2 30 C1.01 30 0.02 30 -1 30 C-1.0246985 26.04900072 -1.04285923 22.09803126 -1.05493164 18.14697266 C-1.06244036 16.14093449 -1.0751447 14.13491798 -1.08789062 12.12890625 C-1.09111328 10.87207031 -1.09433594 9.61523438 -1.09765625 8.3203125 C-1.10289307 7.15773926 -1.10812988 5.99516602 -1.11352539 4.79736328 C-1 2 -1 2 0 0 Z " fill="#FAD72F" transform="translate(556,143)"/>
<path d="M0 0 C1.29550781 0.00644531 2.59101563 0.01289062 3.92578125 0.01953125 C5.28906519 0.03624057 6.65234644 0.05317044 8.015625 0.0703125 C9.39452485 0.0803491 10.77343165 0.08947377 12.15234375 0.09765625 C15.52361382 0.12123157 18.89453136 0.1541398 22.265625 0.1953125 C22.760625 1.6803125 22.760625 1.6803125 23.265625 3.1953125 C26.235625 3.1953125 29.205625 3.1953125 32.265625 3.1953125 C32.265625 3.5253125 32.265625 3.8553125 32.265625 4.1953125 C28.305625 4.1953125 24.345625 4.1953125 20.265625 4.1953125 C20.265625 3.8653125 20.265625 3.5353125 20.265625 3.1953125 C10.035625 2.8653125 -0.194375 2.5353125 -10.734375 2.1953125 C-6.50475176 0.08050088 -4.62442569 -0.04056514 0 0 Z " fill="#F3DC64" transform="translate(347.734375,54.8046875)"/>
<path d="M0 0 C0.66 0.33 1.32 0.66 2 1 C0.85814266 5.47959418 -0.43015167 9.14522751 -3 13 C-3.495 12.01 -3.495 12.01 -4 11 C-3.06421005 8.64018187 -2.06652192 6.30368736 -1 4 C-3.64 4.33 -6.28 4.66 -9 5 C-9.33 5.99 -9.66 6.98 -10 8 C-18.91 8 -27.82 8 -37 8 C-37 7.67 -37 7.34 -37 7 C-28.75 7 -20.5 7 -12 7 C-12 6.01 -12 5.02 -12 4 C-7.67265609 1.77076223 -4.71599818 2.07529447 0 3 C0 2.01 0 1.02 0 0 Z " fill="#F4DE62" transform="translate(686,170)"/>
<path d="M0 0 C0.66 0 1.32 0 2 0 C1.67 1.65 1.34 3.3 1 5 C-3 5 -7 5 -11 5 C-11 5.66 -11 6.32 -11 7 C-13.97 6.505 -13.97 6.505 -17 6 C-17 5.34 -17 4.68 -17 4 C-19.31 4 -21.62 4 -24 4 C-24 3.34 -24 2.68 -24 2 C-24.66 1.67 -25.32 1.34 -26 1 C-25.10539063 1.15597656 -24.21078125 1.31195313 -23.2890625 1.47265625 C-12.63828559 3.21908188 -12.63828559 3.21908188 -2 2 C-1.34 1.34 -0.68 0.68 0 0 Z " fill="#F7DD57" transform="translate(675,137)"/>
<path d="M0 0 C0.33 0 0.66 0 1 0 C1 19.14 1 38.28 1 58 C-0.32 58.66 -1.64 59.32 -3 60 C-3.495 58.515 -3.495 58.515 -4 57 C-2.68 57 -1.36 57 0 57 C0 38.19 0 19.38 0 0 Z " fill="#F6DD69" transform="translate(517,115)"/>
<path d="M0 0 C2.328125 0.07421875 2.328125 0.07421875 5 1 C6.546875 4.01953125 6.546875 4.01953125 7.75 7.8125 C8.15734375 9.05644531 8.5646875 10.30039063 8.984375 11.58203125 C9.71741336 14.04898727 10.41932787 16.49427352 11 19 C12.98 19 14.96 19 17 19 C17 17.68 17 16.36 17 15 C18.32 14.67 19.64 14.34 21 14 C20.34 16.31 19.68 18.62 19 21 C12.25 21.125 12.25 21.125 10 20 C6.66928257 14.59264093 3 7.36679414 3 1 C2.01 0.67 1.02 0.34 0 0 Z " fill="#F3E162" transform="translate(70,216)"/>
<path d="M0 0 C0.6875 1.8125 0.6875 1.8125 1 4 C-1.90333761 7.52524061 -5.65546122 8.94343828 -10 10 C-13.67941355 10.33155909 -17.30973774 10.28675533 -21 10.1875 C-22.44826172 10.16719727 -22.44826172 10.16719727 -23.92578125 10.14648438 C-26.28445425 10.11145458 -28.64191771 10.06234084 -31 10 C-31 9.34 -31 8.68 -31 8 C-29.94941406 8.03480469 -28.89882813 8.06960937 -27.81640625 8.10546875 C-20.05830221 8.28472937 -13.1667553 8.39641881 -6 5 C-5.30390625 4.69835937 -4.6078125 4.39671875 -3.890625 4.0859375 C-1.68048376 3.00305259 -1.68048376 3.00305259 0 0 Z " fill="#F4D958" transform="translate(943,137)"/>
<path d="M0 0 C0.66 0 1.32 0 2 0 C2.6875 2.8125 2.6875 2.8125 3 6 C1.5625 7.75 1.5625 7.75 0 9 C0 9.66 0 10.32 0 11 C-0.66 11.66 -1.32 12.32 -2 13 C-2.99 13 -3.98 13 -5 13 C-5 12.34 -5 11.68 -5 11 C-5.66 11 -6.32 11 -7 11 C-5.7580393 7.56072421 -4.44259716 4.74792181 -2 2 C-1.34 2 -0.68 2 0 2 C0 1.34 0 0.68 0 0 Z " fill="#FADF4B" transform="translate(152,82)"/>
<path d="M0 0 C2.64 0.33 5.28 0.66 8 1 C8 2.65 8 4.3 8 6 C9.093125 5.938125 10.18625 5.87625 11.3125 5.8125 C15 6 15 6 16.73046875 7.51171875 C17.35888672 8.24841797 17.35888672 8.24841797 18 9 C10.58783319 8.64134677 5.43520528 6.64079463 -1 3 C-0.67 2.01 -0.34 1.02 0 0 Z " fill="#F7DC40" transform="translate(622,217)"/>
<path d="M0 0 C-0.66 0 -1.32 0 -2 0 C-2 0.66 -2 1.32 -2 2 C-2.99 2.33 -3.98 2.66 -5 3 C-5 3.99 -5 4.98 -5 6 C-6.66666667 7.66666667 -8.33333333 9.33333333 -10 11 C-11.319018 13.66533035 -11.319018 13.66533035 -12 16 C-12.33 16 -12.66 16 -13 16 C-12.97114138 9.63667421 -11.8634748 5.97302485 -7.47265625 1.3125 C-4.71418994 -1.14597396 -3.42047969 -1.02614391 0 0 Z " fill="#F6E158" transform="translate(26,54)"/>
<path d="M0 0 C0.66 0.99 1.32 1.98 2 3 C3.64488294 4.68816933 5.31337542 6.35353315 7 8 C8.33333333 9.33333333 9.66666667 10.66666667 11 12 C8.25 12.75 8.25 12.75 5 13 C2.625 11.1875 2.625 11.1875 1 9 C1 8.34 1 7.68 1 7 C-0.98 7.33 -2.96 7.66 -5 8 C-3.35 5.36 -1.7 2.72 0 0 Z " fill="#F7DC4D" transform="translate(327,130)"/>
<path d="M0 0 C0 3 0 3 -2 5.1875 C-2.66 5.785625 -3.32 6.38375 -4 7 C-3.01 6.67 -2.02 6.34 -1 6 C-1.33 7.65 -1.66 9.3 -2 11 C-2.99 11 -3.98 11 -5 11 C-5.33 10.34 -5.66 9.68 -6 9 C-6.99 9.495 -6.99 9.495 -8 10 C-8.65555119 12.52733235 -8.65555119 12.52733235 -9 15 C-10.65 15 -12.3 15 -14 15 C-10.33129035 8.98331618 -5.89077809 3.92718539 0 0 Z " fill="#F5D551" transform="translate(623,65)"/>
<path d="M0 0 C0.33 0 0.66 0 1 0 C0.979375 0.969375 0.95875 1.93875 0.9375 2.9375 C0.64381501 5.87465895 0.64381501 5.87465895 2 7 C2.04063832 8.66617115 2.042721 10.33388095 2 12 C1.01 12 0.02 12 -1 12 C-1 12.66 -1 13.32 -1 14 C-0.34 14.33 0.32 14.66 1 15 C0.34 16.32 -0.32 17.64 -1 19 C-1.66 18.67 -2.32 18.34 -3 18 C-4.40341028 12.49431351 -3.7482846 9.86234969 -1 5 C-0.30092586 2.26427415 -0.30092586 2.26427415 0 0 Z " fill="#F5DD52" transform="translate(216,100)"/>
<path d="M0 0 C0.33 0.66 0.66 1.32 1 2 C3.02463255 2.65213292 3.02463255 2.65213292 5 3 C3.33333333 4.66666667 1.66666667 6.33333333 0 8 C-0.86625 8.9075 -1.7325 9.815 -2.625 10.75 C-5 13 -5 13 -8 14 C-8 13.01 -8 12.02 -8 11 C-7.01 10.34 -6.02 9.68 -5 9 C-4.26656572 5.93443402 -4.26656572 5.93443402 -4 3 C-3.34 3 -2.68 3 -2 3 C-1.67 2.34 -1.34 1.68 -1 1 C-0.67 0.67 -0.34 0.34 0 0 Z " fill="#F6DB48" transform="translate(395,161)"/>
<path d="M0 0 C0.66 0 1.32 0 2 0 C1.84152588 0.72018311 1.68305176 1.44036621 1.51977539 2.18237305 C1.02714994 4.85282412 0.79997351 7.37204546 0.68359375 10.08203125 C0.64169922 11.01337891 0.59980469 11.94472656 0.55664062 12.90429688 C0.51732422 13.86400391 0.47800781 14.82371094 0.4375 15.8125 C0.39431641 16.79154297 0.35113281 17.77058594 0.30664062 18.77929688 C0.2009774 21.18607027 0.09887673 23.59293983 0 26 C-0.66 25.67 -1.32 25.34 -2 25 C-2.05816623 21.58340509 -2.09365195 18.16693795 -2.125 14.75 C-2.14175781 13.78191406 -2.15851563 12.81382813 -2.17578125 11.81640625 C-2.18222656 10.88183594 -2.18867188 9.94726562 -2.1953125 8.984375 C-2.20578613 8.12553711 -2.21625977 7.26669922 -2.22705078 6.38183594 C-1.98293323 3.82096404 -1.28990512 2.20488971 0 0 Z " fill="#F5DD64" transform="translate(327,103)"/>
<path d="M0 0 C1.02787125 0.00212242 1.02787125 0.00212242 2.07650757 0.00428772 C4.26719511 0.0098895 6.4577808 0.02244219 8.6484375 0.03515625 C10.13281102 0.04017103 11.61718615 0.04473397 13.1015625 0.04882812 C16.74222065 0.05985948 20.38281914 0.07712526 24.0234375 0.09765625 C24.5184375 1.08765625 24.5184375 1.08765625 25.0234375 2.09765625 C15.4534375 2.09765625 5.8834375 2.09765625 -3.9765625 2.09765625 C-4.3065625 2.75765625 -4.6365625 3.41765625 -4.9765625 4.09765625 C-7.62516677 4.69121239 -10.26853572 4.83974894 -12.9765625 5.09765625 C-11.9865625 4.76765625 -10.9965625 4.43765625 -9.9765625 4.09765625 C-9.6465625 3.10765625 -9.3165625 2.11765625 -8.9765625 1.09765625 C-6.00296801 -0.389141 -3.31357071 -0.0134698 0 0 Z " fill="#F3DB68" transform="translate(696.9765625,55.90234375)"/>
<path d="M0 0 C0.81559387 0.00424484 1.63118774 0.00848969 2.47149658 0.01286316 C5.06987884 0.0296216 7.66747819 0.06726778 10.265625 0.10546875 C12.02993669 0.12051929 13.79426058 0.13420705 15.55859375 0.14648438 C19.87790465 0.17951574 24.1966322 0.23127789 28.515625 0.29296875 C28.185625 0.95296875 27.855625 1.61296875 27.515625 2.29296875 C26.4961377 2.28249512 25.47665039 2.27202148 24.42626953 2.26123047 C20.65058898 2.22508148 16.87492379 2.20208698 13.09912109 2.18310547 C11.46367828 2.17303621 9.82825351 2.15937994 8.19287109 2.14208984 C5.8446813 2.1178817 3.49672912 2.10649518 1.1484375 2.09765625 C0.41505157 2.08733368 -0.31833435 2.07701111 -1.07394409 2.06637573 C-2.87900197 2.06597507 -4.6834533 2.1708412 -6.484375 2.29296875 C-7.144375 2.95296875 -7.804375 3.61296875 -8.484375 4.29296875 C-10.609375 3.91796875 -10.609375 3.91796875 -12.484375 3.29296875 C-8.80269026 -0.41868319 -4.90842085 -0.0963646 0 0 Z " fill="#F3D865" transform="translate(433.484375,55.70703125)"/>
<path d="M0 0 C2.31 0.33 4.62 0.66 7 1 C7.33 2.32 7.66 3.64 8 5 C9.093125 5.0825 10.18625 5.165 11.3125 5.25 C15 6 15 6 16.9375 8.0625 C17.288125 8.701875 17.63875 9.34125 18 10 C15.05771025 9.0420452 12.19631551 8.0888094 9.375 6.8125 C6.74249574 5.91190644 5.56937977 6.04837786 3 7 C3 5.35 3 3.7 3 2 C2.01 1.67 1.02 1.34 0 1 C0 0.67 0 0.34 0 0 Z " fill="#F7DE42" transform="translate(945,57)"/>
<path d="M0 0 C1.27875 0.165 2.5575 0.33 3.875 0.5 C11.88961253 1.32230851 19.95428722 1.07887954 28 1 C28 1.33 28 1.66 28 2 C17.48268942 4.41380899 10.26556368 4.53404651 0 1 C0 0.67 0 0.34 0 0 Z " fill="#F5E058" transform="translate(22,170)"/>
<path d="M0 0 C0.66 0 1.32 0 2 0 C2.0816082 2.37570543 2.14077222 4.74855841 2.1875 7.125 C2.21263672 7.79015625 2.23777344 8.4553125 2.26367188 9.140625 C2.3332236 13.87014242 1.53781286 17.01285346 -1 21 C-1.99 21.66 -2.98 22.32 -4 23 C-4.99 22.67 -5.98 22.34 -7 22 C-6.195625 21.236875 -5.39125 20.47375 -4.5625 19.6875 C-0.69363459 15.62990945 -0.78639075 12.24522736 -0.4375 6.8125 C-0.35371094 5.54019531 -0.26992188 4.26789063 -0.18359375 2.95703125 C-0.12300781 1.98121094 -0.06242188 1.00539063 0 0 Z " fill="#F3D960" transform="translate(687,112)"/>
<path d="M0 0 C0.33 -0.66 0.66 -1.32 1 -2 C1.66 -1.34 2.32 -0.68 3 0 C2.625 3.125 2.625 3.125 2 6 C1.34 5.01 0.68 4.02 0 3 C-3.16245541 1.9458482 -5.86948218 1.68724328 -9.1875 1.4375 C-10.81751953 1.31181641 -10.81751953 1.31181641 -12.48046875 1.18359375 C-13.31191406 1.12300781 -14.14335938 1.06242187 -15 1 C-14.67 0.34 -14.34 -0.32 -14 -1 C-9.04413531 -2.26968434 -4.57906464 -2.51109996 0 0 Z " fill="#F5D74E" transform="translate(547,92)"/>
<path d="M0 0 C1.5003479 0.07069702 1.5003479 0.07069702 3.03100586 0.14282227 C4.1105957 0.19116211 5.19018555 0.23950195 6.30249023 0.28930664 C7.43879883 0.34538086 8.57510742 0.40145508 9.74584961 0.45922852 C11.45611328 0.53753906 11.45611328 0.53753906 13.20092773 0.61743164 C16.02864984 0.74757785 18.85605961 0.8825573 21.68334961 1.02172852 C21.68334961 1.35172852 21.68334961 1.68172852 21.68334961 2.02172852 C21.07861816 2.03107422 20.47388672 2.04041992 19.85083008 2.05004883 C17.0858708 2.10404574 14.32255055 2.18763246 11.55834961 2.27172852 C10.13135742 2.29299805 10.13135742 2.29299805 8.67553711 2.31469727 C2.74142443 2.52074284 -0.73551222 3.16555161 -5.31665039 7.02172852 C-3.08490753 0.02893422 -3.08490753 0.02893422 0 0 Z " fill="#F4DA54" transform="translate(910.316650390625,91.978271484375)"/>
<path d="M0 0 C0.66 0.33 1.32 0.66 2 1 C-0.19118029 3.66175387 -1.35060991 4.89135443 -4.80908203 5.4699707 C-6.39245361 5.44809692 -6.39245361 5.44809692 -8.0078125 5.42578125 C-9.15894531 5.41740234 -10.31007813 5.40902344 -11.49609375 5.40039062 C-12.69363281 5.37138672 -13.89117187 5.34238281 -15.125 5.3125 C-16.33027344 5.30283203 -17.53554688 5.29316406 -18.77734375 5.28320312 C-27.66296443 5.16851779 -27.66296443 5.16851779 -30 4 C-30 3.34 -30 2.68 -30 2 C-29.01 2.33 -28.02 2.66 -27 3 C-23.37938341 3.2557918 -19.75370497 3.23131941 -16.125 3.25 C-15.13113281 3.270625 -14.13726562 3.29125 -13.11328125 3.3125 C-7.80459455 3.3409267 -4.41584572 3.25378106 0 0 Z " fill="#F6DD65" transform="translate(368,140)"/>
<path d="M0 0 C0.99 0.495 0.99 0.495 2 1 C2 1.66 2 2.32 2 3 C3.32 3 4.64 3 6 3 C7.71108689 4.62102968 9.37253306 6.29503463 11 8 C12.94764086 9.44116215 14.94565839 10.71006457 17 12 C14 12 14 12 11.9375 11.4375 C9.9325719 10.76986497 9.9325719 10.76986497 8 12 C7.4121875 10.576875 7.4121875 10.576875 6.8125 9.125 C4.80206144 5.65872662 3.77300358 5.0197307 0 4 C0 2.68 0 1.36 0 0 Z " fill="#F8D95C" transform="translate(81,65)"/>
<path d="M0 0 C0.33 0 0.66 0 1 0 C1 6.6 1 13.2 1 20 C-2.67952474 15.09396701 -2.29124516 13.82490317 -2 8 C-1.34 8 -0.68 8 0 8 C0 5.36 0 2.72 0 0 Z " fill="#FBDD43" transform="translate(516,152)"/>
<path d="M0 0 C0.928125 0.20625 1.85625 0.4125 2.8125 0.625 C3.1425 1.615 3.4725 2.605 3.8125 3.625 C3.1525 3.625 2.4925 3.625 1.8125 3.625 C2.1425 4.615 2.4725 5.605 2.8125 6.625 C-0.1575 5.635 -3.1275 4.645 -6.1875 3.625 C-6.1875 2.965 -6.1875 2.305 -6.1875 1.625 C-3.1875 -0.375 -3.1875 -0.375 0 0 Z " fill="#F8D94F" transform="translate(636.1875,168.375)"/>
<path d="M0 0 C0.66 0.99 1.32 1.98 2 3 C1.67 3.99 1.34 4.98 1 6 C0.35675781 5.84660156 -0.28648437 5.69320312 -0.94921875 5.53515625 C-4.89767537 4.84253326 -8.8131887 4.64199119 -12.8125 4.4375 C-13.60076172 4.39431641 -14.38902344 4.35113281 -15.20117188 4.30664062 C-17.13394215 4.20121679 -19.06695026 4.10016906 -21 4 C-21 3.67 -21 3.34 -21 3 C-14.4 3 -7.8 3 -1 3 C-0.67 2.01 -0.34 1.02 0 0 Z " fill="#F8DD45" transform="translate(674,89)"/>
<path d="M0 0 C4.19813062 3.74427866 6.07776117 6.8403063 8 12 C5.69 12 3.38 12 1 12 C1 11.34 1 10.68 1 10 C1.66 9.67 2.32 9.34 3 9 C2.72382467 7.05925139 2.72382467 7.05925139 2 5 C1.01 4.34 0.02 3.68 -1 3 C-0.67 2.01 -0.34 1.02 0 0 Z " fill="#F8D74C" transform="translate(181,162)"/>
<path d="M0 0 C4.43458973 1.3937282 6.87378374 3.60582235 10 7 C9.67 7.66 9.34 8.32 9 9 C8.01 8.34 7.02 7.68 6 7 C4.34450469 6.61500109 2.6777567 6.27206865 1 6 C1.33 5.01 1.66 4.02 2 3 C1.34 3 0.68 3 0 3 C0 2.01 0 1.02 0 0 Z " fill="#F4D953" transform="translate(572,64)"/>
<path d="M0 0 C0.66 0.33 1.32 0.66 2 1 C1.34 5.29 0.68 9.58 0 14 C-0.99 13.67 -1.98 13.34 -3 13 C-2.88490339 11.58249437 -2.75746342 10.16598831 -2.625 8.75 C-2.55539062 7.96109375 -2.48578125 7.1721875 -2.4140625 6.359375 C-1.98492887 3.914123 -1.21399362 2.15163097 0 0 Z " fill="#F6DD5F" transform="translate(519,100)"/>
<path d="M0 0 C1.2536419 3.51180455 0.77956527 5.33464859 -0.75 8.6875 C-1.09546875 9.47511719 -1.4409375 10.26273438 -1.796875 11.07421875 C-3 13 -3 13 -6 14 C-4.50829734 9.0276578 -2.39542583 4.58154261 0 0 Z " fill="#F4E05F" transform="translate(71,169)"/>
<path d="M0 0 C3 1 3 1 5 3 C5.928125 2.484375 6.85625 1.96875 7.8125 1.4375 C11 0 11 0 14 1 C12.56705502 1.84114171 11.12845595 2.67265687 9.6875 3.5 C8.88699219 3.9640625 8.08648437 4.428125 7.26171875 4.90625 C5 6 5 6 2 6 C1.34 4.02 0.68 2.04 0 0 Z " fill="#F8DF60" transform="translate(322,57)"/>
<path d="M0 0 C3.70722086 3.19588005 5.40645479 6.38710598 7 11 C6.67 11.99 6.34 12.98 6 14 C4 12 4 12 3 8.9375 C2.34247444 5.87849194 2.34247444 5.87849194 0 5 C0 3.35 0 1.7 0 0 Z " fill="#F8DE61" transform="translate(191,178)"/>
<path d="M0 0 C0.33 0.66 0.66 1.32 1 2 C1.66 2.33 2.32 2.66 3 3 C2.67 4.32 2.34 5.64 2 7 C2.99 7 3.98 7 5 7 C4.67 7.99 4.34 8.98 4 10 C0.66476748 8.61990379 -1.18607951 7.15049348 -3 4 C-2.67 3.01 -2.34 2.02 -2 1 C-1.34 1.33 -0.68 1.66 0 2 C0 1.34 0 0.68 0 0 Z " fill="#F8E452" transform="translate(18,160)"/>
<path d="M0 0 C-0.0625 2.3125 -0.0625 2.3125 -1 5 C-4.50148842 6.88042897 -7.0080306 8 -11 8 C-9.54712339 6.66072279 -8.08752741 5.32873153 -6.625 4 C-5.81289062 3.2575 -5.00078125 2.515 -4.1640625 1.75 C-2 0 -2 0 0 0 Z " fill="#F7DB58" transform="translate(165,73)"/>
<path d="M0 0 C0.33 1.32 0.66 2.64 1 4 C-0.77021322 4.336611 -2.54119674 4.66917293 -4.3125 5 C-5.79169922 5.2784375 -5.79169922 5.2784375 -7.30078125 5.5625 C-10 6 -10 6 -13 6 C-10.78631706 3.78631706 -9.06983375 2.13447079 -5.88671875 1.734375 C-3.92253213 1.74833014 -1.9597375 1.86713644 0 2 C0 1.34 0 0.68 0 0 Z " fill="#F3DC59" transform="translate(438,4)"/>
<path d="M0 0 C2.20449433 1.02351522 4.03843541 2.0309963 5.9375 3.5625 C8.29598047 5.20628942 10.17748429 5.60798393 13 6 C13 7.32 13 8.64 13 10 C7.65978754 8.49806525 3.86352256 4.82517494 0 1 C0 0.67 0 0.34 0 0 Z " fill="#F6DF62" transform="translate(615,160)"/>
<path d="M0 0 C0.66 0 1.32 0 2 0 C2.55978184 1.57701982 3.09719401 3.16199242 3.625 4.75 C3.92664063 5.63171875 4.22828125 6.5134375 4.5390625 7.421875 C5.07333427 10.41017471 4.62433191 11.49923002 3 14 C0.79600832 9.44508386 0.41153737 4.97093824 0 0 Z " fill="#F6DE4E" transform="translate(739,144)"/>
<path d="M0 0 C4.95 0.33 9.9 0.66 15 1 C15 1.33 15 1.66 15 2 C10.71 2 6.42 2 2 2 C1.34 3.32 0.68 4.64 0 6 C-0.66 6 -1.32 6 -2 6 C-1.49396008 3.83125748 -1.00016187 2.00032373 0 0 Z " fill="#F9DD4B" transform="translate(481,56)"/>
<path d="M0 0 C1 3 1 3 -0.125 5.625 C-2 8 -2 8 -4.5625 8.9375 C-5.366875 8.958125 -6.17125 8.97875 -7 9 C-7.66 8.34 -8.32 7.68 -9 7 C-5.535 6.505 -5.535 6.505 -2 6 C-1.855625 5.195625 -1.71125 4.39125 -1.5625 3.5625 C-1 1 -1 1 0 0 Z " fill="#F5E05A" transform="translate(180,228)"/>
<path d="M0 0 C1.32 0.33 2.64 0.66 4 1 C2.71451591 2.33929505 1.42141845 3.67128643 0.125 5 C-0.59429688 5.7425 -1.31359375 6.485 -2.0546875 7.25 C-4 9 -4 9 -6 9 C-6 8.34 -6 7.68 -6 7 C-5.34 7 -4.68 7 -4 7 C-3.67 5.68 -3.34 4.36 -3 3 C-2.01 3 -1.02 3 0 3 C0 2.01 0 1.02 0 0 Z " fill="#F2DB59" transform="translate(707,208)"/>
<path d="M0 0 C0.93423645 3.01031744 1.04449911 3.86650268 0 7 C-1.98 7 -3.96 7 -6 7 C-5.67 6.01 -5.34 5.02 -5 4 C-4.34 4 -3.68 4 -3 4 C-2.67 3.01 -2.34 2.02 -2 1 C-1.34 0.67 -0.68 0.34 0 0 Z " fill="#FADE55" transform="translate(619,179)"/>
<path d="M0 0 C2.29141286 -0.05384521 4.58318188 -0.09272087 6.875 -0.125 C8.78925781 -0.15980469 8.78925781 -0.15980469 10.7421875 -0.1953125 C14 0 14 0 16 2 C13.69 1.67 11.38 1.34 9 1 C9 1.66 9 2.32 9 3 C7.68 3 6.36 3 5 3 C5 2.34 5 1.68 5 1 C3.35 1 1.7 1 0 1 C0 0.67 0 0.34 0 0 Z " fill="#F7D846" transform="translate(368,59)"/>
<path d="M0 0 C2 3 2 3 2 7 C0.02 7.33 -1.96 7.66 -4 8 C-2.66666667 5.33333333 -1.33333333 2.66666667 0 0 Z " fill="#F8DC4D" transform="translate(374,132)"/>
<path d="M0 0 C0.33 0.99 0.66 1.98 1 3 C-0.4375 5.1875 -0.4375 5.1875 -2 7 C-3.65 6.67 -5.3 6.34 -7 6 C-2.25 1.125 -2.25 1.125 0 0 Z " fill="#F9DC54" transform="translate(175,65)"/>
<path d="M0 0 C0.99 0 1.98 0 3 0 C2.39305845 3.15330554 1.3583335 5.18888867 -0.5625 7.75 C-1.24505859 8.67039063 -1.24505859 8.67039063 -1.94140625 9.609375 C-2.29074219 10.06828125 -2.64007812 10.5271875 -3 11 C-3.33 9.68 -3.66 8.36 -4 7 C-3.01 6.34 -2.02 5.68 -1 5 C-0.27034634 2.43717258 -0.27034634 2.43717258 0 0 Z " fill="#F6E159" transform="translate(716,196)"/>
<path d="M0 0 C0.33 0.99 0.66 1.98 1 3 C2.32148827 3.37756808 3.65835921 3.7018576 5 4 C6.68991979 4.9601817 8.36209288 5.95355934 10 7 C6.23375329 8.25541557 4.62811066 7.37061958 1 6 C0.67 4.02 0.34 2.04 0 0 Z " fill="#F9DE58" transform="translate(629,177)"/>
<path d="M0 0 C6.26638478 1.0845666 6.26638478 1.0845666 8.35546875 3.69140625 C9.32087881 5.41659751 10.16943988 7.20599015 11 9 C8.03469503 7.64199529 5.70868729 6.07571737 3.25 3.9375 C2.63640625 3.41027344 2.0228125 2.88304687 1.390625 2.33984375 C0.93171875 1.89769531 0.4728125 1.45554688 0 1 C0 0.67 0 0.34 0 0 Z " fill="#F5DF6A" transform="translate(609,210)"/>
<path d="M0 0 C0.66 0 1.32 0 2 0 C2.508783 1.55966218 3.00663469 3.12289241 3.5 4.6875 C3.7784375 5.55761719 4.056875 6.42773438 4.34375 7.32421875 C4.99850805 9.99391677 5.11831495 12.26396684 5 15 C2.49639008 10.37795091 0 5.30049345 0 0 Z " fill="#F6DD68" transform="translate(148,161)"/>
<path d="M0 0 C0.66 0 1.32 0 2 0 C3.59412284 3.18824568 3.10174735 6.62896662 3.0625 10.125 C3.05798828 10.87910156 3.05347656 11.63320312 3.04882812 12.41015625 C3.03703499 14.27347127 3.01909942 16.13674555 3 18 C2.67 18 2.34 18 2 18 C1.93941406 17.03578125 1.87882812 16.0715625 1.81640625 15.078125 C1.73261719 13.81484375 1.64882813 12.5515625 1.5625 11.25 C1.48128906 9.99703125 1.40007812 8.7440625 1.31640625 7.453125 C1.07484478 4.81682447 0.75716066 2.51962706 0 0 Z " fill="#F8DD4E" transform="translate(376,107)"/>
<path d="M0 0 C0.33 0.66 0.66 1.32 1 2 C1.66 2.33 2.32 2.66 3 3 C1.6875 4.5 1.6875 4.5 0 6 C-0.99 6 -1.98 6 -3 6 C-3 5.34 -3 4.68 -3 4 C-3.66 3.67 -4.32 3.34 -5 3 C-3.35 2.67 -1.7 2.34 0 2 C0 1.34 0 0.68 0 0 Z " fill="#F9DA4B" transform="translate(109,112)"/>
<path d="M0 0 C0.33 0 0.66 0 1 0 C1 2.64 1 5.28 1 8 C0.34 8 -0.32 8 -1 8 C-1 9.98 -1 11.96 -1 14 C-1.33 14 -1.66 14 -2 14 C-2.3690205 4.58997722 -2.3690205 4.58997722 0 0 Z " fill="#F8DF5D" transform="translate(52,207)"/>
<path d="M0 0 C2.4375 0.8125 2.4375 0.8125 5 2 C6 5 6 5 5 8 C0 2.25 0 2.25 0 0 Z " fill="#F5DE57" transform="translate(609,152)"/>
<path d="M0 0 C1.32 0.66 2.64 1.32 4 2 C3.39816251 4.02045442 2.72693904 6.02111039 2 8 C1.01 8.495 1.01 8.495 0 9 C-1.125 2.25 -1.125 2.25 0 0 Z " fill="#F8DB4E" transform="translate(407,145)"/>
<path d="M0 0 C2.5 1.375 2.5 1.375 5 3 C5 3.66 5 4.32 5 5 C3.68 5 2.36 5 1 5 C0.67 5.66 0.34 6.32 0 7 C-0.66 6.34 -1.32 5.68 -2 5 C-1.34 3.35 -0.68 1.7 0 0 Z " fill="#F8D94D" transform="translate(109,89)"/>
<path d="M0 0 C0.33 0.99 0.66 1.98 1 3 C2.093125 3.0825 3.18625 3.165 4.3125 3.25 C8 4 8 4 9.9375 6.0625 C10.288125 6.701875 10.63875 7.34125 11 8 C7.27566618 6.7874262 3.62197194 5.49140021 0 4 C0 2.68 0 1.36 0 0 Z " fill="#F9E568" transform="translate(952,59)"/>
<path d="M0 0 C1.43655854 -0.08131463 2.8744483 -0.13933559 4.3125 -0.1875 C5.51326172 -0.23970703 5.51326172 -0.23970703 6.73828125 -0.29296875 C9.47851584 0.06198392 10.29171079 0.89366282 12 3 C10.56163249 2.88541307 9.12429034 2.75790884 7.6875 2.625 C6.88699219 2.55539063 6.08648438 2.48578125 5.26171875 2.4140625 C3 2 3 2 0 0 Z " fill="#F3DF5F" transform="translate(628,223)"/>
<path d="M0 0 C0.99 0 1.98 0 3 0 C2.67 1.98 2.34 3.96 2 6 C3.65 6 5.3 6 7 6 C7 6.33 7 6.66 7 7 C5.00045254 7.04254356 2.99958364 7.04080783 1 7 C0 6 0 6 -0.0625 2.9375 C-0.041875 1.968125 -0.02125 0.99875 0 0 Z " fill="#F7DB4A" transform="translate(51,215)"/>
<path d="M0 0 C2.97 0 5.94 0 9 0 C6.3144406 2.6855594 3.62378672 3.06049974 0 4 C0 2.68 0 1.36 0 0 Z " fill="#F7DA4F" transform="translate(43,138)"/>
<path d="M0 0 C0 2.83967231 -0.40267181 5.23735711 -1 8 C-2.65 8 -4.3 8 -6 8 C-2.25 2.25 -2.25 2.25 0 0 Z " fill="#F4DA5E" transform="translate(615,72)"/>
<path d="M0 0 C1.11375 0.4640625 1.11375 0.4640625 2.25 0.9375 C4.50692176 1.8094925 6.6450153 2.47667007 9 3 C7.35 3.33 5.7 3.66 4 4 C4 4.66 4 5.32 4 6 C3.01 5.67 2.02 5.34 1 5 C0.67 3.35 0.34 1.7 0 0 Z " fill="#F4DC53" transform="translate(514,57)"/>
<path d="M0 0 C5.28 0 10.56 0 16 0 C16 0.33 16 0.66 16 1 C15.07767578 1.09087891 15.07767578 1.09087891 14.13671875 1.18359375 C13.32847656 1.26738281 12.52023438 1.35117187 11.6875 1.4375 C10.88699219 1.51871094 10.08648437 1.59992187 9.26171875 1.68359375 C6.83912821 1.95265693 6.83912821 1.95265693 4 3 C4 2.34 4 1.68 4 1 C2.68 0.67 1.36 0.34 0 0 Z " fill="#FCDF42" transform="translate(26,53)"/>
<path d="M0 0 C2.9375 0.75 2.9375 0.75 4.9375 2.75 C3.6175 3.08 2.2975 3.41 0.9375 3.75 C0.9375 3.09 0.9375 2.43 0.9375 1.75 C-1.3725 1.75 -3.6825 1.75 -6.0625 1.75 C-3.0625 -0.25 -3.0625 -0.25 0 0 Z " fill="#F3D85A" transform="translate(50.0625,83.25)"/>
<path d="M0 0 C0.33 0.66 0.66 1.32 1 2 C1.66 2 2.32 2 3 2 C4.20272819 4.40545638 4.10071472 5.94996953 4.0625 8.625 C4.05347656 9.44226563 4.04445312 10.25953125 4.03515625 11.1015625 C4.02355469 11.72804687 4.01195312 12.35453125 4 13 C3.67 13 3.34 13 3 13 C3 10.36 3 7.72 3 5 C2.01 4.67 1.02 4.34 0 4 C0 2.68 0 1.36 0 0 Z " fill="#F2E166" transform="translate(153,176)"/>
<path d="M0 0 C2.475 0.99 2.475 0.99 5 2 C4.34 3.65 3.68 5.3 3 7 C0 3.375 0 3.375 0 0 Z " fill="#F7DE4D" transform="translate(402,152)"/>
<path d="M0 0 C1.98 0 3.96 0 6 0 C3.31158141 2.25245881 1.35358125 3.88213958 -2 5 C-2 4.01 -2 3.02 -2 2 C-1.34 2 -0.68 2 0 2 C0 1.34 0 0.68 0 0 Z " fill="#F1DB4F" transform="translate(186,89)"/>
<path d="M0 0 C1.65 0 3.3 0 5 0 C4.67 0.99 4.34 1.98 4 3 C1.36 3.33 -1.28 3.66 -4 4 C-3.01 3.67 -2.02 3.34 -1 3 C-0.67 2.01 -0.34 1.02 0 0 Z " fill="#F6DB52" transform="translate(688,57)"/>
<path d="M0 0 C1.32 1.32 2.64 2.64 4 4 C3.01 5.485 3.01 5.485 2 7 C1.34 7 0.68 7 0 7 C0 4.69 0 2.38 0 0 Z " fill="#F4DD41" transform="translate(458,9)"/>
<path d="M0 0 C0.99 0.99 1.98 1.98 3 3 C2.34 3 1.68 3 1 3 C1 4.98 1 6.96 1 9 C0.34 8.34 -0.32 7.68 -1 7 C-0.625 3.375 -0.625 3.375 0 0 Z " fill="#F9D857" transform="translate(164,207)"/>
<path d="M0 0 C-0.9590625 0.433125 -0.9590625 0.433125 -1.9375 0.875 C-4.15206079 1.82823451 -4.15206079 1.82823451 -5 4 C-5.99 4 -6.98 4 -8 4 C-7.67 2.68 -7.34 1.36 -7 0 C-2.25 -1.125 -2.25 -1.125 0 0 Z " fill="#F7E261" transform="translate(826,175)"/>
<path d="M0 0 C0.66 0 1.32 0 2 0 C2.66 1.98 3.32 3.96 4 6 C3.01 6 2.02 6 1 6 C0.67 6.66 0.34 7.32 0 8 C0 5.36 0 2.72 0 0 Z " fill="#FADC2C" transform="translate(408,141)"/>
<path d="M0 0 C0.66 0.33 1.32 0.66 2 1 C1 3 1 3 -1.375 4.25 C-2.674375 4.62125 -2.674375 4.62125 -4 5 C-4.99 4.34 -5.98 3.68 -7 3 C-4.69631264 1.93347808 -2.35981813 0.93578995 0 0 Z " fill="#FBD849" transform="translate(684,133)"/>
</svg>
